<?xml version="1.0" encoding="UTF-8" standalone="no"?>
<svg
   width="31"
   height="32.999992"
   viewBox="0 0 31 32.999992"
   fill="none"
   version="1.1"
   id="svg62"
   sodipodi:docname="policies_icons.svg"
   xmlns:inkscape="http://www.inkscape.org/namespaces/inkscape"
   xmlns:sodipodi="http://sodipodi.sourceforge.net/DTD/sodipodi-0.dtd"
   xmlns="http://www.w3.org/2000/svg"
   xmlns:svg="http://www.w3.org/2000/svg">
  <defs
     id="defs66" />
  <sodipodi:namedview
     id="namedview64"
     pagecolor="#ffffff"
     bordercolor="#000000"
     borderopacity="0.25"
     inkscape:showpageshadow="2"
     inkscape:pageopacity="0.0"
     inkscape:pagecheckerboard="0"
     inkscape:deskcolor="#d1d1d1"
     showgrid="false" />
  <path
     fill-rule="evenodd"
     clip-rule="evenodd"
     d="M 15,-1.9897461e-6 3.0000004,4.999998 v 25 H 15 Z M 11,5.999998 h 2 v 3 h -2 z m 2,6 h -2 v 3 h 2 z m -2,6 h 2 v 3 h -2 z m -3.9999996,-12 h -2 v 3 h 2 z m -2,6 h 2 v 3 h -2 z m 2,6 h -2 v 3 h 2 z m -7.00000004276123,13 H 31 v 2 H 3.5723877e-7 Z M 28,10.999998 l -12,-5 v 24 h 12 z m -8,1 h -2 v 3 h 2 z m -2,6 h 2 v 3 h -2 z m 8,-6 h -2 v 3 h 2 z m -2,6 h 2 v 3 h -2 z"
     fill="#0170b7"
     id="path22" />
</svg>
