<svg width="50" height="50" viewBox="0 0 50 50" fill="none" xmlns="http://www.w3.org/2000/svg">
<path fill-rule="evenodd" clip-rule="evenodd" d="M24.5 13.5078L40.5 9.00781V21.0078L33.807 19.5437C33.068 20.4108 32.02 20.9373 30.913 21.0356L25.5 30.5078H20.5V41.0078H9.5V27.0078C9.5 23.9702 11.962 21.5078 15 21.5078C18.038 21.5078 20.5 24.0078 20.5 26.5078H23L27.676 19.9619C27.057 19.411 26.621 18.6993 26.401 17.9237L24.5 17.5078V13.5078ZM27.562 18.1777C27.875 18.8313 28.404 19.3869 29.107 19.7254C30.308 20.3029 31.684 20.0886 32.646 19.2897L27.562 18.1777ZM20.5 15.0078C20.5 18.0454 18.038 20.5078 15 20.5078C11.962 20.5078 9.5 18.0454 9.5 15.0078C9.5 11.9702 11.962 9.50781 15 9.50781C18.038 9.50781 20.5 11.9702 20.5 15.0078ZM22.5 13.5078H23.5V17.5078H22.5V13.5078Z" fill="#005C96"/>
</svg>
