<svg width="528" height="185" viewBox="0 0 528 185" fill="none" xmlns="http://www.w3.org/2000/svg">
<rect width="528" height="184" transform="translate(0 0.507812)" fill="#0170B7"/>
<g clip-path="url(#clip0_487_22427)">
<path fill-rule="evenodd" clip-rule="evenodd" d="M242.829 58.5289C242.829 61.8811 240.019 64.5722 236.575 64.5722C233.13 64.5722 230.32 61.8811 230.32 58.5289C230.32 55.1844 233.13 52.4856 236.575 52.4856C240.019 52.4856 242.829 55.1844 242.829 58.5289ZM241.527 68.461C245.356 66.6799 247.998 62.9077 247.998 58.5289C247.998 52.4467 242.884 47.5078 236.575 47.5078C230.266 47.5078 225.151 52.4467 225.151 58.5289C225.151 62.9077 227.793 66.6799 231.622 68.461C225.908 70.141 221.395 74.6442 219.713 80.3609C219.249 81.9398 219 83.6121 219 85.3387H224.169H248.98H254.149C254.149 83.6121 253.9 81.9398 253.436 80.3609C251.754 74.6442 247.242 70.141 241.527 68.461ZM225.165 80.3609C227.09 75.8032 231.573 72.7232 236.575 72.7232C241.577 72.7232 246.059 75.8032 247.984 80.3609H225.165Z" fill="white"/>
<path fill-rule="evenodd" clip-rule="evenodd" d="M297.681 110.297C297.681 113.649 294.871 116.34 291.426 116.34C287.982 116.34 285.172 113.649 285.172 110.297C285.172 106.952 287.982 104.253 291.426 104.253C294.871 104.253 297.681 106.952 297.681 110.297ZM296.379 120.229C300.208 118.447 302.85 114.675 302.85 110.297C302.85 104.214 297.735 99.2754 291.426 99.2754C285.117 99.2754 280.003 104.214 280.003 110.297C280.003 114.675 282.645 118.447 286.474 120.229C280.759 121.909 276.247 126.412 274.565 132.128C274.1 133.707 273.852 135.38 273.852 137.106H279.021H303.832H309.001C309.001 135.38 308.752 133.707 308.288 132.128C306.606 126.412 302.093 121.909 296.379 120.229ZM280.017 132.128C281.942 127.571 286.424 124.491 291.426 124.491C296.428 124.491 300.911 127.571 302.835 132.128H280.017Z" fill="white"/>
<path fill-rule="evenodd" clip-rule="evenodd" d="M291.446 61.7914C285.741 56.2968 278.627 53.5381 272.173 53.4829C270.46 53.4683 268.891 52.3464 268.656 50.7125C268.421 49.0786 269.607 47.5543 271.32 47.5154C279.81 47.3221 288.845 50.8387 295.833 57.5676C301.966 63.4745 305.519 70.8853 306.17 78.127C306.317 79.7704 304.884 81.0823 303.171 81.0475C301.459 81.0126 300.118 79.6421 299.923 78.0035C299.259 72.4452 296.433 66.5937 291.446 61.7914Z" fill="#F2C94C"/>
<path fill-rule="evenodd" clip-rule="evenodd" d="M239.046 127.586C232.058 123.701 227.449 117.798 225.724 111.809C225.266 110.219 223.734 109.05 222.034 109.254C220.335 109.458 219.113 110.957 219.517 112.56C221.521 120.508 227.386 128.001 235.944 132.76C243.457 136.936 251.81 138.323 259.242 137.054C260.928 136.766 261.873 135.093 261.395 133.509C260.917 131.925 259.195 131.033 257.501 131.275C251.754 132.096 245.153 130.982 239.046 127.586Z" fill="#F2C94C"/>
</g>
<defs>
<clipPath id="clip0_487_22427">
<rect width="90" height="90" fill="white" transform="translate(219 47.5078)"/>
</clipPath>
</defs>
</svg>
