<?xml version="1.0" encoding="UTF-8" standalone="no"?>
<svg
   width="29.845261"
   height="30"
   viewBox="0 0 29.845261 30"
   fill="none"
   version="1.1"
   id="svg62"
   sodipodi:docname="policies_icons.svg"
   xmlns:inkscape="http://www.inkscape.org/namespaces/inkscape"
   xmlns:sodipodi="http://sodipodi.sourceforge.net/DTD/sodipodi-0.dtd"
   xmlns="http://www.w3.org/2000/svg"
   xmlns:svg="http://www.w3.org/2000/svg">
  <defs
     id="defs66" />
  <sodipodi:namedview
     id="namedview64"
     pagecolor="#ffffff"
     bordercolor="#000000"
     borderopacity="0.25"
     inkscape:showpageshadow="2"
     inkscape:pageopacity="0.0"
     inkscape:pagecheckerboard="0"
     inkscape:deskcolor="#d1d1d1"
     showgrid="false" />
  <path
     d="m 12.038056,0.24710064 -3.9330002,2.08239996 -5.477,-1.45439996 c -0.143,-0.0381 -0.296,-0.0098 -0.417,0.0771 -0.285,0.20569996 -0.27,0.63449996 0.028,0.82089996 l 3.309,2.0707 -3.54,2.0824 -1.57299996,-0.7572 c -0.079,-0.038 -0.151,-0.045 -0.216,-0.0313 -0.35,0.074 -0.23,0.5765 0.008,0.8424 0.393,0.4385 0.93799996,1.027 1.38799996,1.4605 0.629,0.6058 1.054,0.699 1.573,0.3786 2.557,-1.5775 8.0630002,-4.8983 9.0460002,-5.4897 1.418,-0.8525 1.967,-1.70369996 1.377,-2.08239996 -0.472,-0.3028 -0.983,-0.3551 -1.573,0 z"
     fill="#0170b7"
     id="path50" />
  <path
     fill-rule="evenodd"
     clip-rule="evenodd"
     d="m 12.071056,20.226601 0.852,-14.1602004 c 0.228,-1.6523 1.611,-2.0664 2.274,-2.0664 h 11.369 c 0.866,0 1.423,0.3125 1.769,0.7148 0.38,0.4414 0.505,0.9883 0.505,1.3516 l 0.012,0.1758 c 0.286,4.0586004 0.766,10.8633004 0.84,13.3945004 0.064,2.1602 0,3 -1.705,3.5391 -4.486,1.4219 -10.829,1.0117 -13.814,0.3086 -1.421,-0.336 -2.31,-1.2149 -2.102,-3.2578 z m 13.496,-14.4375004 c 1.494,0 1.782,0.9023 1.868,1.6992 0.042,0.3945 0.106,1.0234 0.16,1.6172 l 0.061,0.7383 c 0.022,0.2890004 0.036,0.5273004 0.036,0.6718004 0,0.6406 0,1.1133 -1.627,1.2149 -1.798,0.1133 -7.862,0.2031 -10.084,0.1015 -1.778,-0.082 -1.954,-0.6758 -1.92,-1.3164 0.035,-0.6406004 0.302,-3.0273004 0.302,-3.0273004 0.187,-1.3594 0.943,-1.6992 1.487,-1.6992 z m -10.599,14.0468004 c 0.503,0 0.911,-0.4218 0.911,-0.9453 0,-0.1328 -0.027,-0.2617 -0.075,-0.375 -0.14,-0.3359 -0.462,-0.5703 -0.836,-0.5703 -0.3,0 -0.566,0.1485 -0.732,0.3828 -0.112,0.1563 -0.179,0.3516 -0.179,0.5625 0,0.5235 0.408,0.9453 0.911,0.9453 z m 12.399,-0.1992 c -0.154,0.125 -0.348,0.1992 -0.558,0.1992 -0.153,0 -0.297,-0.039 -0.424,-0.1093 l -0.112,-0.0704 c -0.227,-0.1718 -0.374,-0.4492 -0.374,-0.7656 0,-0.0586 0.004,-0.1133 0.013,-0.164 l 0.023,-0.1055 c 0.111,-0.3906 0.461,-0.6758 0.874,-0.6758 0.124,0 0.242,0.0235 0.349,0.0703 l 0.137,0.0742 c 0.255,0.168 0.425,0.4649 0.425,0.8008 0,0.3047 -0.138,0.5742 -0.353,0.7461 z m -13.924,4.8594 1.722,0.5273 c 0.074,0.0235 0.135,0.0704 0.175,0.1289 0.044,0.0665 0.065,0.1485 0.056,0.2344 l -0.195,1.6758 h 2.57 6.148 2.57 l -0.195,-1.7344 c -0.019,-0.1679 0.083,-0.3242 0.239,-0.3672 l 1.72,-0.4765 c 0.175,-0.0469 0.355,0.0625 0.399,0.2422 l 1.183,4.8515 c 0.029,0.1172 -0.006,0.2344 -0.078,0.3125 -0.059,0.0664 -0.142,0.1094 -0.237,0.1094 h -2.099 c -0.146,0 -0.275,-0.1016 -0.313,-0.25 l -0.391,-1.5039 h -2.798 -6.148 -2.798 l -0.39,1.5039 c -0.028,0.1094 -0.105,0.1914 -0.201,0.2266 -0.035,0.0156 -0.074,0.0234 -0.114,0.0234 h -2.097 c -0.212,0 -0.368,-0.207 -0.316,-0.4219 l 1.181,-4.8398 c 0.045,-0.1875 0.23,-0.2969 0.407,-0.2422 z"
     fill="#0170b7"
     id="path52" />
</svg>
