<svg width="249" height="135" viewBox="0 0 249 135" fill="none" xmlns="http://www.w3.org/2000/svg">
<g clip-path="url(#clip0_21_2)">
<path d="M80.8475 50.6827H76.6466V53.3083H81.5039V55.2775H74.021V44.3813H81.6352V46.4818H76.7779V48.8448H80.9788V50.6827H80.8475Z" fill="#084C7E"/>
<path d="M91.2184 44.3813V51.6017C91.2184 52.3894 91.0872 53.177 90.6933 53.7022C90.2995 54.3586 89.9057 54.7524 89.2493 55.015C88.5929 55.2775 87.8052 55.5401 87.0175 55.5401C85.7047 55.5401 84.6545 55.1462 83.8668 54.4898C83.0791 53.8334 82.6853 52.9145 82.6853 51.6017V44.3813H85.3109V51.6017C85.3109 52.7832 85.836 53.4396 87.0175 53.4396C87.5426 53.4396 87.9365 53.3083 88.199 53.0458C88.4616 52.7832 88.5929 52.2581 88.5929 51.6017V44.3813H91.2184Z" fill="#084C7E"/>
<path d="M96.8637 51.4704H95.5509V55.4088H92.9253V44.3813H97.2575C98.5703 44.3813 99.6205 44.6439 100.277 45.3003C101.065 45.8254 101.327 46.7444 101.327 47.7946C101.327 48.5823 101.196 49.2387 100.802 49.6325C100.539 50.1576 100.014 50.5515 99.358 50.814L101.59 55.2775V55.4088H98.7016L96.8637 51.4704ZM95.5509 49.5012H97.2575C97.7826 49.5012 98.1765 49.37 98.439 49.1074C98.7016 48.8448 98.8329 48.451 98.8329 48.0572C98.8329 47.532 98.7016 47.2695 98.439 47.0069C98.1765 46.7444 97.7826 46.6131 97.2575 46.6131H95.5509V49.5012Z" fill="#084C7E"/>
<path d="M112.223 50.1577C112.223 51.2079 111.961 52.1269 111.567 53.0458C111.173 53.8335 110.648 54.4899 109.86 54.8837C109.072 55.2776 108.285 55.5401 107.366 55.5401C106.447 55.5401 105.659 55.2776 104.872 54.8837C104.084 54.4899 103.559 53.8335 103.165 53.0458C102.771 52.2581 102.509 51.3392 102.509 50.289V49.6326C102.509 48.5823 102.64 47.6634 103.034 46.7444C103.427 45.9567 103.953 45.3004 104.74 44.9065C105.528 44.5127 106.447 44.2501 107.366 44.2501C108.285 44.2501 109.072 44.5127 109.86 44.9065C110.648 45.3004 111.173 45.9567 111.567 46.7444C111.961 47.5321 112.223 48.4511 112.223 49.5013V50.1577ZM109.466 49.6326C109.466 48.5823 109.335 47.6634 108.941 47.1383C108.547 46.6131 108.022 46.3506 107.366 46.3506C106.053 46.3506 105.397 47.4008 105.265 49.37V50.1577C105.265 51.2079 105.397 51.9956 105.791 52.652C106.184 53.1771 106.709 53.4397 107.366 53.4397C108.022 53.4397 108.547 53.1771 108.941 52.652C109.335 52.1269 109.466 51.2079 109.466 50.1577V49.6326Z" fill="#084C7E"/>
<path d="M116.161 51.6017V55.2775H113.536V44.3813H117.868C118.656 44.3813 119.443 44.5126 120.1 44.9065C120.756 45.169 121.281 45.6941 121.544 46.2193C121.938 46.7444 122.069 47.4008 122.069 48.1884C122.069 49.2387 121.675 50.1576 120.888 50.814C120.231 51.3391 119.181 51.6017 117.868 51.6017H116.161ZM116.161 49.6325H117.868C118.393 49.6325 118.787 49.5012 119.05 49.2387C119.312 48.9761 119.443 48.5823 119.443 48.1884C119.443 47.6633 119.312 47.2695 119.05 47.0069C118.787 46.7444 118.393 46.4818 117.868 46.4818H116.161V49.6325Z" fill="#084C7E"/>
<path d="M130.34 50.6827H126.139V53.3083H130.996V55.2775H123.513V44.3813H131.127V46.4818H126.27V48.8448H130.471V50.6827H130.34Z" fill="#084C7E"/>
<path d="M138.348 53.3084H134.672L134.016 55.4089H131.259L135.328 44.5127H137.823L141.892 55.4089H139.004L138.348 53.3084ZM135.46 51.2079H137.823L136.641 47.4008L135.46 51.2079Z" fill="#084C7E"/>
<path d="M151.869 55.4088H149.244L145.306 48.5823V55.4088H142.68V44.3813H145.306L149.244 51.2079V44.3813H151.869V55.4088Z" fill="#084C7E"/>
<path d="M82.8167 69.4558C82.8167 70.2434 82.5542 70.8998 82.1603 71.4249C81.7665 71.9501 81.2414 72.4752 80.585 72.7377C79.9286 73.0003 79.1409 73.2628 78.222 73.2628C76.7779 73.2628 75.5964 72.7377 74.8087 71.8188C74.021 70.8998 73.6272 69.587 73.6272 67.8804V67.3553C73.6272 66.3051 73.7585 65.3861 74.1523 64.5984C74.5462 63.8108 75.0713 63.1544 75.7277 62.7605C76.3841 62.3667 77.303 62.1041 78.222 62.1041C79.5348 62.1041 80.585 62.498 81.3727 63.1544C82.1603 63.8108 82.6855 64.861 82.6855 66.0425H80.0599C80.0599 65.3861 79.9286 64.861 79.5348 64.5984C79.2722 64.3359 78.7471 64.2046 78.0907 64.2046C77.4343 64.2046 76.9092 64.4671 76.6466 64.9923C76.3841 65.5174 76.1215 66.3051 76.1215 67.3553V67.8804C76.1215 69.0619 76.2528 69.8496 76.5153 70.3747C76.7779 70.8998 77.303 71.1624 78.0907 71.1624C78.7471 71.1624 79.1409 71.0311 79.5348 70.7685C79.7973 70.506 80.0599 69.9809 80.0599 69.4558H82.8167Z" fill="#084C7E"/>
<path d="M86.7552 71.031H91.35V73.1315H84.1296V62.2354H86.7552V71.031Z" fill="#084C7E"/>
<path d="M95.2882 73.1315H92.6626V62.2354H95.2882V73.1315Z" fill="#084C7E"/>
<path d="M100.539 62.1041L103.034 69.7183L105.528 62.1041H108.941V73.1316H106.316V70.506L106.578 65.2548L103.953 73.0003H102.115L99.4892 65.2548L99.7518 70.506V73.1316H97.1262V62.2354H100.539V62.1041Z" fill="#084C7E"/>
<path d="M116.818 71.031H113.142L112.617 73.1315H109.86L113.93 62.2354H116.424L120.494 73.1315H117.606L116.818 71.031ZM113.798 69.0619H116.161L114.98 65.2548L113.798 69.0619Z" fill="#084C7E"/>
<path d="M128.764 64.2046H125.483V73.1316H122.857V64.2046H119.575V62.1041H128.764V64.2046Z" fill="#084C7E"/>
<path d="M136.641 68.4055H132.44V71.031H137.298V73.1315H129.815V62.2354H137.429V64.3358H132.572V66.5676H136.772V68.4055H136.641Z" fill="#084C7E"/>
<path d="M148.588 71.031H144.912L144.387 73.1315H141.499L145.568 62.2354H148.062L152.001 73.1315H149.113L148.588 71.031ZM145.568 69.0619H147.931L146.75 65.2548L145.568 69.0619Z" fill="#084C7E"/>
<path d="M161.978 73.1315H159.353L155.414 66.305V73.1315H152.789V62.2354H155.414L159.353 69.0619V62.2354H161.978V73.1315Z" fill="#084C7E"/>
<path d="M163.685 73.1315V62.2354H167.229C168.148 62.2354 169.067 62.4979 169.855 62.8917C170.642 63.2856 171.167 63.942 171.693 64.7297C172.086 65.5173 172.349 66.4363 172.349 67.3552V67.8804C172.349 68.9306 172.086 69.7183 171.693 70.6372C171.299 71.4249 170.642 72.0813 169.855 72.4751C169.067 72.869 168.279 73.1315 167.229 73.1315H163.685ZM166.31 64.2045V71.031H167.229C168.017 71.031 168.542 70.7685 168.936 70.2434C169.33 69.7183 169.592 68.9306 169.592 67.8804V67.3552C169.592 66.305 169.33 65.5173 168.936 64.9922C168.542 64.4671 167.885 64.2045 167.098 64.2045H166.31Z" fill="#084C7E"/>
<path d="M186.659 73.1315H184.033V68.5367H180.095V73.1315H177.469V62.2354H180.095V66.5676H184.033V62.2354H186.659V73.1315Z" fill="#084C7E"/>
<path d="M195.06 68.4055H190.859V71.031H195.717V73.1315H188.234V62.2354H195.848V64.3358H190.991V66.5676H195.192V68.4055H195.06Z" fill="#084C7E"/>
<path d="M203.068 71.031H199.393L198.736 73.1315H195.979L200.049 62.2354H202.543L206.613 73.1315H203.725L203.068 71.031ZM200.18 69.0619H202.543L201.362 65.2548L200.18 69.0619Z" fill="#084C7E"/>
<path d="M210.026 71.031H214.621V73.1315H207.401V62.2354H210.026V71.031Z" fill="#084C7E"/>
<path d="M222.76 64.2046H219.478V73.1316H216.853V64.2046H213.571V62.1041H222.76V64.2046Z" fill="#084C7E"/>
<path d="M233 73.1315H230.375V68.5367H226.436V73.1315H223.811V62.2354H226.436V66.5676H230.375V62.2354H233V73.1315Z" fill="#084C7E"/>
<path d="M83.3419 85.603C83.3419 86.6532 83.0793 87.5722 82.6855 88.4911C82.2916 89.2788 81.7665 89.9352 80.9788 90.329C80.1912 90.7229 79.4035 90.9854 78.4845 90.9854C77.5656 90.9854 76.7779 90.7229 75.9902 90.329C75.2025 89.9352 74.6774 89.2788 74.2836 88.4911C73.8898 87.7035 73.6272 86.7845 73.6272 85.7343V85.0779C73.6272 84.0276 73.7585 83.1087 74.1523 82.1897C74.5462 81.4021 75.0713 80.7457 75.8589 80.3518C76.6466 79.958 77.5656 79.6954 78.4845 79.6954C79.4035 79.6954 80.1912 79.958 80.9788 80.3518C81.7665 80.7457 82.2916 81.4021 82.6855 82.1897C83.0793 82.9774 83.3419 83.8964 83.3419 84.9466V85.603ZM80.585 85.2092C80.585 84.1589 80.4537 83.24 80.0599 82.7149C79.666 82.1897 79.1409 81.9272 78.4845 81.9272C77.1717 81.9272 76.5153 82.9774 76.3841 84.9466V85.7343C76.3841 86.7845 76.5153 87.5722 76.9092 88.2286C77.303 88.7537 77.8281 89.1475 78.4845 89.1475C79.1409 89.1475 79.666 88.885 80.0599 88.3599C80.4537 87.8347 80.585 86.9158 80.585 85.8656V85.2092Z" fill="#084C7E"/>
<path d="M84.6545 90.9854V80.0892H88.5929C90.037 80.0892 91.0872 80.3518 91.7436 80.8769C92.5313 81.402 92.7938 82.1897 92.7938 83.1087C92.7938 83.6338 92.6626 84.1589 92.4 84.5527C92.1374 84.9466 91.7436 85.2091 91.2185 85.4717C91.7436 85.603 92.2687 85.8655 92.5313 86.2594C92.7938 86.6532 92.9251 87.1783 92.9251 87.7034C92.9251 88.7537 92.5313 89.5413 91.8749 90.0664C91.2185 90.5916 90.1683 90.8541 88.8555 90.8541H84.6545V90.9854ZM87.2801 84.684H88.5929C89.118 84.684 89.6431 84.5527 89.7744 84.4214C89.9057 84.2902 90.1683 83.8963 90.1683 83.5025C90.1683 82.9774 90.037 82.7148 89.7744 82.4523C89.5119 82.1897 89.118 82.1897 88.4616 82.1897H87.1488V84.684H87.2801ZM87.2801 86.3906V89.0162H88.9867C89.5119 89.0162 89.7744 88.8849 90.037 88.7537C90.2995 88.6224 90.4308 88.2285 90.4308 87.8347C90.4308 86.9157 90.037 86.5219 89.118 86.5219H87.2801V86.3906Z" fill="#084C7E"/>
<path d="M100.277 87.966C100.277 87.5721 100.146 87.3096 99.883 87.047C99.6205 86.7844 99.0954 86.6532 98.439 86.3906C97.7826 86.1281 97.1262 85.9968 96.7323 85.7342C95.2883 85.0778 94.6319 84.0276 94.6319 82.8461C94.6319 82.1897 94.7632 81.6646 95.157 81.2707C95.5508 80.8769 96.0759 80.4831 96.6011 80.2205C97.2575 79.9579 97.9139 79.8267 98.8328 79.8267C99.6205 79.8267 100.277 79.9579 100.933 80.2205C101.59 80.4831 101.983 80.8769 102.377 81.402C102.771 81.9271 102.902 82.4522 102.902 83.2399H100.277C100.277 82.8461 100.146 82.4522 99.883 82.1897C99.6205 81.9271 99.2266 81.7958 98.8328 81.7958C98.3077 81.7958 98.0451 81.9271 97.6513 82.0584C97.3887 82.321 97.2575 82.5835 97.2575 82.8461C97.2575 83.1086 97.3887 83.3712 97.6513 83.6338C97.9138 83.8963 98.439 84.1589 99.2266 84.2901C100.014 84.5527 100.539 84.8153 101.065 85.0778C102.246 85.7342 102.902 86.6532 102.902 87.8347C102.902 88.7536 102.509 89.5413 101.852 90.0664C101.196 90.5915 100.146 90.8541 98.8328 90.8541C97.9139 90.8541 97.1262 90.7228 96.4698 90.329C95.8134 90.0664 95.157 89.5413 94.8944 89.0162C94.6319 88.4911 94.238 87.966 94.238 87.3096H96.8636C96.8636 87.8347 96.9949 88.3598 97.2575 88.6224C97.52 88.8849 98.0451 89.0162 98.7015 89.0162C99.0954 89.0162 99.4892 88.8849 99.7518 88.7536C100.146 88.4911 100.277 88.2285 100.277 87.966Z" fill="#084C7E"/>
<path d="M111.042 86.3906H106.841V89.0162H111.698V90.9854H104.215V80.0892H111.83V82.1897H106.972V84.5527H111.173V86.3906H111.042Z" fill="#084C7E"/>
<path d="M116.949 87.1784H115.505V91.1167H112.88V80.2206H117.212C118.525 80.2206 119.575 80.4831 120.231 81.1395C121.019 81.6647 121.282 82.5836 121.282 83.6338C121.282 84.4215 121.15 85.0779 120.756 85.4717C120.494 85.9969 119.969 86.3907 119.312 86.6533L121.544 91.1167V91.248H118.656L116.949 87.1784ZM115.505 85.0779H117.212C117.737 85.0779 118.131 84.9466 118.393 84.6841C118.656 84.4215 118.787 84.0277 118.787 83.6338C118.787 83.1087 118.656 82.8462 118.393 82.5836C118.131 82.321 117.737 82.1898 117.212 82.1898H115.505V85.0779Z" fill="#084C7E"/>
<path d="M126.927 87.966L129.158 79.958H132.046L128.371 90.9854H125.482L121.807 80.0893H124.695L126.927 87.966Z" fill="#084C7E"/>
<path d="M138.61 89.0163H134.934L134.278 91.1167H131.521L135.591 80.2206H138.085L142.155 91.1167H139.267L138.61 89.0163ZM135.591 86.9158H137.954L136.772 83.1087L135.591 86.9158Z" fill="#084C7E"/>
<path d="M150.557 82.0585H147.275V90.9854H144.649V82.0585H141.367V79.958H150.557V82.0585Z" fill="#084C7E"/>
<path d="M160.665 85.603C160.665 86.6532 160.403 87.5722 160.009 88.4911C159.615 89.2788 159.09 89.9352 158.302 90.329C157.515 90.7229 156.727 90.9854 155.808 90.9854C154.889 90.9854 154.101 90.7229 153.314 90.329C152.526 89.9352 152.001 89.2788 151.607 88.4911C151.213 87.7035 150.951 86.7845 150.951 85.7343V85.0779C150.951 84.0276 151.082 83.1087 151.476 82.1897C151.87 81.4021 152.395 80.7457 153.182 80.3518C153.97 79.958 154.758 79.6954 155.677 79.6954C156.596 79.6954 157.383 79.958 158.171 80.3518C158.959 80.7457 159.484 81.4021 159.878 82.1897C160.272 82.9774 160.534 83.8964 160.534 84.9466V85.603H160.665ZM158.04 85.2092C158.04 84.1589 157.908 83.24 157.515 82.7149C157.121 82.1897 156.596 81.9272 155.939 81.9272C154.627 81.9272 153.97 82.9774 153.839 84.9466V85.7343C153.839 86.7845 153.97 87.5722 154.364 88.2286C154.758 88.7537 155.283 89.1475 155.939 89.1475C156.596 89.1475 157.121 88.885 157.515 88.3599C157.908 87.8347 158.04 86.9158 158.04 85.8656V85.2092Z" fill="#084C7E"/>
<path d="M166.179 87.1784H164.735V91.1167H162.109V80.2206H166.442C167.754 80.2206 168.805 80.4831 169.461 81.1395C170.249 81.6647 170.511 82.5836 170.511 83.6338C170.511 84.4215 170.38 85.0779 169.986 85.4717C169.724 85.9969 169.198 86.3907 168.542 86.6533L170.774 91.1167V91.248H167.886L166.179 87.1784ZM164.735 85.0779H166.442C166.967 85.0779 167.361 84.9466 167.623 84.6841C167.886 84.4215 168.017 84.0277 168.017 83.6338C168.017 83.1087 167.886 82.8462 167.623 82.5836C167.361 82.321 166.967 82.1898 166.442 82.1898H164.735V85.0779Z" fill="#084C7E"/>
<path d="M175.762 84.8153L177.732 80.0892H180.62L177.075 87.047V90.9854H174.45V87.047L170.905 80.0892H173.793L175.762 84.8153Z" fill="#084C7E"/>
<path d="M48.5529 84.5528C39.4947 86.2594 36.344 81.0082 35.8188 73.5253C36.2127 77.4637 38.1819 80.3518 43.0392 79.6954C51.8349 78.1201 56.6922 69.1931 56.4297 62.4979C54.8543 69.9808 49.3406 75.232 40.5449 76.1509C40.0198 75.3632 39.8885 72.7377 39.8885 71.1623C39.7572 62.7604 53.5415 55.1463 56.1671 51.2079C67.0633 60.2661 60.7619 79.5642 48.5529 84.5528Z" fill="#084C7E"/>
<path d="M20.3279 55.8027C21.1156 54.6212 21.9032 53.4397 22.9535 52.2582C30.6989 57.6406 35.1624 63.5482 37.3942 68.5368C39.7572 75.6259 36.2126 86.522 48.4216 84.6841C35.6875 88.6225 26.6293 77.9889 23.6099 64.9922C22.8222 78.1202 30.8302 86.2595 43.5643 91.1168C20.4592 90.9855 11.0071 70.8998 20.3279 55.8027Z" fill="#50B0A4"/>
<path d="M39.3634 55.8027C42.5536 55.8027 45.1397 53.2166 45.1397 50.0264C45.1397 46.8362 42.5536 44.2501 39.3634 44.2501C36.1733 44.2501 33.5872 46.8362 33.5872 50.0264C33.5872 53.2166 36.1733 55.8027 39.3634 55.8027Z" fill="#084C7E"/>
</g>
<defs>
<clipPath id="clip0_21_2">
<rect width="216.217" height="46.7353" fill="white" transform="translate(16.7834 44.2501)"/>
</clipPath>
</defs>
</svg>
