<?xml version="1.0" encoding="UTF-8" standalone="no"?>
<svg
   width="26.573135"
   height="20.872047"
   viewBox="0 0 26.573135 20.872047"
   fill="none"
   version="1.1"
   id="svg62"
   sodipodi:docname="policies_icons.svg"
   xmlns:inkscape="http://www.inkscape.org/namespaces/inkscape"
   xmlns:sodipodi="http://sodipodi.sourceforge.net/DTD/sodipodi-0.dtd"
   xmlns="http://www.w3.org/2000/svg"
   xmlns:svg="http://www.w3.org/2000/svg">
  <defs
     id="defs66" />
  <sodipodi:namedview
     id="namedview64"
     pagecolor="#ffffff"
     bordercolor="#000000"
     borderopacity="0.25"
     inkscape:showpageshadow="2"
     inkscape:pageopacity="0.0"
     inkscape:pagecheckerboard="0"
     inkscape:deskcolor="#d1d1d1"
     showgrid="false" />
  <path
     d="m 5.5298257,3.8720438 c 3.5,5.5 6.0000003,7.6670002 8.5000003,10.0000002 2,-3.499 12,-13.50000021 12.5,-9.5000002 0.4,3.2 -2,6.5000002 -6,9.5000002 -4,3.001 -2.798,2 0.5,2 3.47,0 2.97,3 2.47,2.5 -0.5,-0.5 -1.97,0 -4.47,1 -4.53,2.5 -8.53,1 -9.5300003,0.5 -1,-0.5 -4.97,1 -6.97,1 -1.99999996,0 -4,-1 -1,-1.5 3.5,0.5 2.47,-1.501 5.47,-2.501 -1.5,-2 -5.47,-2.999 -5,-10.5000002 0.504,-8.047 0.03,-7.998 3.53,-2.499 z"
     fill="#0170b7"
     id="path34" />
</svg>
