<svg width="51" height="50" viewBox="0 0 51 50" fill="none" xmlns="http://www.w3.org/2000/svg">
<path d="M19.7117 8.67154C19.8567 8.08541 20.3828 7.67371 20.9866 7.67371H28.941C29.545 7.67371 30.071 8.08541 30.216 8.67154L30.996 11.8235C31.201 12.6517 30.574 13.4524 29.721 13.4524H20.2065C19.3534 13.4524 18.7267 12.6517 18.9317 11.8235L19.7117 8.67154Z" fill="#005C96"/>
<path fill-rule="evenodd" clip-rule="evenodd" d="M18.1593 9.50867H13.5427C12.092 9.50867 10.916 10.6847 10.916 12.1353V39.7152C10.916 41.1659 12.092 42.3419 13.5427 42.3419H36.657C38.108 42.3419 39.284 41.1659 39.284 39.7152V12.1353C39.284 10.6847 38.108 9.50867 36.657 9.50867H31.783L32.278 11.5097C32.33 11.7202 32.356 11.9298 32.356 12.1353H36.132C36.422 12.1353 36.657 12.3705 36.657 12.6607V39.1899C36.657 39.48 36.422 39.7152 36.132 39.7152H14.068C13.7779 39.7152 13.5427 39.48 13.5427 39.1899V12.6607C13.5427 12.3705 13.7779 12.1353 14.068 12.1353H17.5859C17.5868 11.9298 17.612 11.7202 17.6641 11.5097L18.1593 9.50867Z" fill="#005C96"/>
<path d="M25.043 19.4883C24.7421 19.4883 24.498 19.7039 24.498 19.9698V21.896C24.498 22.162 24.7421 22.3776 25.043 22.3776H33.934C34.235 22.3776 34.479 22.162 34.479 21.896V19.9698C34.479 19.7039 34.235 19.4883 33.934 19.4883H25.043Z" fill="#005C96"/>
<path d="M25.043 26.5868C24.7421 26.5868 24.498 26.8024 24.498 27.0683V28.9946C24.498 29.2605 24.7421 29.4761 25.043 29.4761H33.934C34.235 29.4761 34.479 29.2605 34.479 28.9946V27.0683C34.479 26.8024 34.235 26.5868 33.934 26.5868H25.043Z" fill="#005C96"/>
<path d="M25.043 33.6776C24.7421 33.6776 24.498 33.8932 24.498 34.1592V36.0854C24.498 36.3513 24.7421 36.5669 25.043 36.5669H33.934C34.235 36.5669 34.479 36.3513 34.479 36.0854V34.1592C34.479 33.8932 34.235 33.6776 33.934 33.6776H25.043Z" fill="#005C96"/>
<path d="M19.1146 36.5669C19.9124 36.5669 20.5592 35.9201 20.5592 35.1223C20.5592 34.3244 19.9124 33.6776 19.1146 33.6776C18.3167 33.6776 17.6699 34.3244 17.6699 35.1223C17.6699 35.9201 18.3167 36.5669 19.1146 36.5669Z" fill="#005C96"/>
<path d="M19.1146 29.476C19.9124 29.476 20.5592 28.8292 20.5592 28.0313C20.5592 27.2335 19.9124 26.5867 19.1146 26.5867C18.3167 26.5867 17.6699 27.2335 17.6699 28.0313C17.6699 28.8292 18.3167 29.476 19.1146 29.476Z" fill="#005C96"/>
<path fill-rule="evenodd" clip-rule="evenodd" d="M22.3533 17.16C22.5979 17.3044 22.6834 17.617 22.5464 17.8657L19.9052 22.6623C19.7543 22.9364 19.3988 23.0186 19.1429 22.8386L16.1353 20.7237C15.8959 20.5554 15.8402 20.224 16.0114 19.9866L16.5385 19.256C16.702 19.0295 17.0141 18.9704 17.2489 19.1216L18.7945 20.1167C18.8329 20.1414 18.8841 20.1285 18.9061 20.0886L20.7141 16.8194C20.8573 16.5604 21.1861 16.4708 21.4409 16.6213L21.884 16.8829L22.3533 17.16Z" fill="#005C96"/>
</svg>
