<svg width="204" height="204" xmlns="http://www.w3.org/2000/svg" xmlns:xlink="http://www.w3.org/1999/xlink" xml:space="preserve" overflow="hidden"><g transform="translate(-628 -168)"><path d="M754.949 229.231 703.95 203.731 662 221.71 662 329.219 705.05 310.769 756.051 336.269 798 318.29 798 210.781 754.949 229.231ZM645 210.5 704.5 185 755.5 210.5 809.076 187.539C811.234 186.614 813.732 187.614 814.657 189.771 814.883 190.3 815 190.87 815 191.445L815 329.5 755.5 355 704.5 329.5 650.924 352.461C648.767 353.386 646.268 352.386 645.344 350.229 645.117 349.7 645 349.13 645 348.554L645 210.5ZM679 261.5 696 261.5 696 278.5 679 278.5 679 261.5ZM713 261.5 730 261.5 730 278.5 713 278.5 713 261.5ZM763.984 260.968 774.502 250.45 783.518 259.466 773 269.984 783.518 280.502 774.502 289.518 763.984 279 753.466 289.518 744.45 280.502 754.968 269.984 744.45 259.466 753.466 250.45 763.984 260.968Z" fill="#0070C0"/></g></svg>