<?xml version="1.0" encoding="UTF-8" standalone="no"?>
<svg
   width="34.000008"
   height="22.840004"
   viewBox="0 0 34.000008 22.840004"
   fill="none"
   version="1.1"
   id="svg62"
   sodipodi:docname="policies_icons.svg"
   xmlns:inkscape="http://www.inkscape.org/namespaces/inkscape"
   xmlns:sodipodi="http://sodipodi.sourceforge.net/DTD/sodipodi-0.dtd"
   xmlns="http://www.w3.org/2000/svg"
   xmlns:svg="http://www.w3.org/2000/svg">
  <defs
     id="defs66" />
  <sodipodi:namedview
     id="namedview64"
     pagecolor="#ffffff"
     bordercolor="#000000"
     borderopacity="0.25"
     inkscape:showpageshadow="2"
     inkscape:pageopacity="0.0"
     inkscape:pagecheckerboard="0"
     inkscape:deskcolor="#d1d1d1"
     showgrid="false" />
  <path
     fill-rule="evenodd"
     clip-rule="evenodd"
     d="m 1.8890012,-1.9897461e-6 -0.01,0.1089999997461 -0.005,0.143 c -0.032,0.248 -0.143,0.443 -0.325,0.602 -0.088,0.076 -0.193,0.144 -0.314,0.20499999 -0.195,0.099 -0.41299998,0.168 -0.62399998,0.212 -0.223,0.047 -0.438,0.069 -0.6110000017383,0.069 v 1.5 C 0.09700122,2.839998 0.20300122,2.835998 0.31500122,2.827998 c 0.068,-0.006 0.138,-0.012 0.21,-0.021 l 0.162,-0.024 c 0.192,-0.031 0.39399998,-0.076 0.59899998,-0.138 0.21,-0.063 0.423,-0.145 0.628,-0.249 0.121,-0.062 0.243,-0.132 0.36,-0.212 0.099,-0.069 0.195,-0.143 0.286,-0.225 l 0.023,0.023 c 0.534,0.538 1.342,0.858 2.445,0.858 0.322,0 0.742,-0.043 1.176,-0.162 0.246,-0.067 0.497,-0.158 0.738,-0.282 0.224,-0.113 0.445,-0.257 0.646,-0.437 l 0.023,0.023 c 0.495,0.498 1.225,0.815 2.206,0.858 l 0.108,-0.002 0.1309998,0.002 c 0.485,-0.029 1.108,-0.156 1.674,-0.444 0.224,-0.113 0.446,-0.257 0.647,-0.437 l 0.022,0.023 c 0.495,0.498 1.225,0.815 2.206,0.858 l 0.099,-0.002 0.141,0.002 c 0.245,-0.014 0.526,-0.061 0.817,-0.131 0.284,-0.068 0.577,-0.17 0.857,-0.313 0.224,-0.113 0.445,-0.257 0.647,-0.437 l 0.022,0.023 c 0.495,0.498 1.225,0.815 2.207,0.858 l 0.107,-0.002 0.132,0.002 c 0.182,-0.012 0.385,-0.037 0.597,-0.08 0.142,-0.028 0.288,-0.063 0.435,-0.108 0.215,-0.064 0.433,-0.148 0.642,-0.256 0.224,-0.113 0.445,-0.257 0.647,-0.437 l 0.022,0.023 c 0.495,0.498 1.225,0.815 2.206,0.858 l 0.108,-0.002 0.132,0.002 c 0.484,-0.029 1.108,-0.156 1.674,-0.444 0.141,-0.072 0.282,-0.156 0.417,-0.253 0.078,-0.057 0.155,-0.118 0.229,-0.184 l 0.023,0.023 c 0.162,0.164 0.35,0.307 0.563,0.428 0.438,0.248 0.984,0.401 1.643,0.43 l 0.099,-0.002 0.14,0.002 0.103,-0.008 0.083,-0.01 0.124,-0.015 0.254,-0.043 c 0.359,-0.067 0.747,-0.182 1.11,-0.368 0.224,-0.113 0.446,-0.257 0.647,-0.437 l 0.022,0.023 c 0.535,0.538 1.343,0.858 2.446,0.858 v -1.5 c -0.229,0 -0.424,-0.018 -0.591,-0.049 -0.246,-0.045 -0.429,-0.117 -0.566,-0.195 -0.097,-0.057 -0.17,-0.11599999 -0.226,-0.17199999 -0.025,-0.026 -0.048,-0.051 -0.069,-0.078 -0.025,-0.032 -0.048,-0.065 -0.068,-0.098 -0.087,-0.146 -0.125,-0.301 -0.133,-0.437 0.006,-0.073 0.009,-0.147 0.009,-0.221 l -1.495,-0.089999999746 -0.012,0.1459999997461 -0.003,0.106 c -0.02,0.156 -0.071,0.291 -0.152,0.408 -0.109,0.162 -0.273,0.291 -0.487,0.39899999 -0.086,0.043 -0.177,0.08 -0.269,0.113 -0.084,0.029 -0.169,0.055 -0.254,0.076 l -0.135,0.031 c -0.169,0.033 -0.332,0.053 -0.475,0.059 -0.716,-0.024 -1.07,-0.238 -1.245,-0.41399999 -0.186,-0.186 -0.26,-0.42 -0.271,-0.613 0.006,-0.073 0.009,-0.147 0.009,-0.221 l -1.495,-0.089999999746 -0.011,0.1269999997461 -0.004,0.125 c -0.047,0.367 -0.269,0.619 -0.639,0.80699999 -0.363,0.183 -0.803,0.265 -1.132,0.279 -0.251,-0.008 -0.458,-0.039 -0.628,-0.084 -0.314,-0.086 -0.504,-0.217 -0.618,-0.32999999 -0.077,-0.076 -0.135,-0.162 -0.177,-0.25 -0.059,-0.123 -0.087,-0.25 -0.093,-0.363 l 0.006,-0.116 0.002,-0.105 -1.494,-0.089999999746 C 21.274001,0.08199801 21.269001,0.16599801 21.269001,0.25199801 c -0.048,0.367 -0.269,0.619 -0.639,0.80699999 -0.363,0.183 -0.804,0.265 -1.133,0.279 -0.485,-0.016 -0.803,-0.119 -1.013,-0.238 -0.1,-0.059 -0.176,-0.11999999 -0.233,-0.17599999 -0.101,-0.102 -0.169,-0.217 -0.212,-0.332 -0.021,-0.057 -0.036,-0.115 -0.046,-0.172 -0.006,-0.037 -0.01,-0.074 -0.012,-0.109 0.005,-0.073 0.008,-0.147 0.008,-0.221 l -1.494,-0.089999999746 C 16.485001,0.08199801 16.480001,0.16599801 16.479001,0.25199801 c -0.025,0.199 -0.102,0.363 -0.225,0.502 -0.038,0.043 -0.08,0.082 -0.126,0.121 -0.082,0.068 -0.178,0.12899999 -0.287,0.18399999 -0.363,0.183 -0.804,0.265 -1.133,0.279 -0.716,-0.024 -1.07,-0.238 -1.246,-0.41399999 -0.185,-0.186 -0.259,-0.42 -0.27,-0.613 0.006,-0.073 0.009,-0.147 0.009,-0.221 l -1.495,-0.089999999746 C 11.696001,0.08199801 11.691001,0.16599801 11.691001,0.25199801 c -0.024,0.189 -0.095,0.348 -0.208,0.482 -0.107,0.127 -0.251,0.233 -0.431,0.32499999 -0.249,0.125 -0.534,0.203 -0.794,0.244 -0.121,0.019 -0.233,0.031 -0.3369998,0.035 -0.307,-0.01 -0.548,-0.057 -0.736,-0.117 -0.252,-0.082 -0.411,-0.196 -0.511,-0.29699999 -0.186,-0.186 -0.26,-0.42 -0.27,-0.613 l 0.006,-0.104 0.002,-0.117 -1.495,-0.089999999746 C 6.9080012,0.08199801 6.9030012,0.16599801 6.9020012,0.25199801 c -0.047,0.367 -0.268,0.619 -0.639,0.80699999 -0.294,0.148 -0.64,0.23 -0.936,0.263 -0.108,0.012 -0.209,0.018 -0.299,0.018 -0.809,0 -1.196,-0.229 -1.382,-0.41599999 -0.186,-0.186 -0.26,-0.42 -0.271,-0.613 0.006,-0.073 0.009,-0.147 0.009,-0.221 z m 0,3.9999999897461 c -0.01,0.082 -0.015,0.166 -0.015,0.252 -0.047,0.367 -0.269,0.619 -0.639,0.807 -0.24499998,0.123 -0.52499998,0.201 -0.78199998,0.242 -0.165,0.027 -0.322,0.039 -0.4530000017383,0.039 v 1.5 C 0.50400122,6.839998 1.2490012,6.733998 1.9140012,6.395998 l 0.131,-0.072 c 0.07,-0.039 0.139,-0.082 0.207,-0.127 l 0.118,-0.082 0.088,-0.068 0.102,-0.088 0.023,0.023 c 0.534,0.538 1.342,0.858 2.445,0.858 0.504,0 1.249,-0.106 1.914,-0.444 l 0.152,-0.082 0.074,-0.043 0.058,-0.037 0.082,-0.054 0.111,-0.08 c 0.058,-0.045 0.114,-0.092 0.169,-0.141 l 0.023,0.023 c 0.115,0.116 0.243,0.221 0.383,0.317 0.067,0.045 0.136,0.088 0.208,0.127 0.084,0.047 0.172,0.09 0.264,0.129 0.185,0.08 0.386,0.144 0.604,0.191 0.23,0.051 0.479,0.082 0.747,0.094 l 0.086,-0.002 h 0.02 l 0.1329998,0.002 c 0.166,-0.01 0.348,-0.039 0.539,-0.072 0.078,-0.014 0.157,-0.03 0.237,-0.049 l 0.198,-0.051 c 0.234,-0.066 0.472,-0.154 0.7,-0.272 0.224,-0.113 0.446,-0.257 0.647,-0.437 l 0.022,0.023 c 0.495,0.498 1.225,0.815 2.206,0.858 l 0.108,-0.002 0.132,0.002 c 0.484,-0.029 1.108,-0.156 1.674,-0.444 0.224,-0.113 0.445,-0.257 0.647,-0.437 l 0.022,0.023 c 0.495,0.498 1.225,0.815 2.207,0.858 l 0.107,-0.002 0.132,0.002 c 0.104,-0.006 0.214,-0.018 0.329,-0.033 0.204,-0.03 0.423,-0.073 0.645,-0.137 0.234,-0.068 0.472,-0.158 0.7,-0.274 0.224,-0.113 0.445,-0.257 0.647,-0.437 l 0.022,0.023 c 0.06,0.061 0.123,0.118 0.19,0.172 l 0.111,0.084 c 0.129,0.096 0.271,0.182 0.425,0.256 0.408,0.195 0.9,0.32 1.48,0.346 l 0.108,-0.002 0.132,0.002 c 0.484,-0.029 1.108,-0.156 1.674,-0.444 0.223,-0.113 0.445,-0.257 0.646,-0.437 l 0.023,0.023 c 0.495,0.498 1.225,0.815 2.206,0.858 l 0.108,-0.002 0.131,0.002 c 0.248,-0.016 0.533,-0.055 0.828,-0.129 0.153,-0.039 0.308,-0.088 0.463,-0.145 0.129,-0.048 0.258,-0.105 0.383,-0.17 0.224,-0.113 0.446,-0.257 0.647,-0.437 l 0.022,0.023 c 0.238,0.239 0.529,0.434 0.876,0.579 0.435,0.179 0.957,0.279 1.57,0.279 v -1.5 c -0.809,0 -1.196,-0.229 -1.383,-0.416 -0.185,-0.186 -0.259,-0.42 -0.27,-0.613 l 0.006,-0.088 0.003,-0.133 -1.495,-0.09 -0.013,0.156 -0.002,0.096 c -0.047,0.367 -0.269,0.619 -0.639,0.807 -0.363,0.183 -0.803,0.265 -1.133,0.279 -0.267,-0.008 -0.484,-0.043 -0.66,-0.094 -0.295,-0.084 -0.475,-0.211 -0.585,-0.32 -0.093,-0.094 -0.158,-0.199 -0.201,-0.305 -0.043,-0.105 -0.064,-0.213 -0.07,-0.308 0.006,-0.073 0.009,-0.147 0.009,-0.221 l -1.495,-0.09 c -0.01,0.082 -0.015,0.166 -0.015,0.252 -0.047,0.367 -0.269,0.619 -0.639,0.807 -0.363,0.183 -0.803,0.265 -1.132,0.279 -0.717,-0.024 -1.07,-0.238 -1.246,-0.414 -0.089,-0.088 -0.152,-0.188 -0.195,-0.287 -0.036,-0.086 -0.058,-0.174 -0.069,-0.256 l -0.006,-0.07 c 0.005,-0.073 0.008,-0.147 0.008,-0.221 l -1.494,-0.09 -0.011,0.115 -0.004,0.137 c -0.048,0.367 -0.269,0.619 -0.639,0.807 -0.363,0.183 -0.804,0.265 -1.133,0.279 -0.716,-0.024 -1.07,-0.238 -1.246,-0.414 -0.055,-0.055 -0.101,-0.115 -0.137,-0.178 -0.021,-0.035 -0.04,-0.07 -0.055,-0.105 -0.015,-0.034 -0.028,-0.069 -0.038,-0.104 -0.024,-0.078 -0.036,-0.154 -0.04,-0.226 0.005,-0.073 0.008,-0.147 0.008,-0.221 l -1.494,-0.09 -0.009,0.092 -0.007,0.16 c -0.047,0.367 -0.268,0.619 -0.638,0.807 -0.363,0.183 -0.804,0.265 -1.133,0.279 -0.716,-0.024 -1.07,-0.238 -1.246,-0.414 -0.185,-0.186 -0.259,-0.42 -0.27,-0.613 0.006,-0.073 0.009,-0.147 0.009,-0.221 l -1.495,-0.09 -0.011,0.117 -0.004,0.135 c -0.047,0.367 -0.269,0.619 -0.639,0.807 -0.363,0.183 -0.803,0.265 -1.1319998,0.279 -0.234,-0.008 -0.429,-0.037 -0.592,-0.078 l -0.12,-0.033 c -0.066,-0.022 -0.125,-0.043 -0.178,-0.067 -0.165,-0.072 -0.278,-0.158 -0.356,-0.236 l -0.059,-0.065 -0.05,-0.064 c -0.045,-0.066 -0.08,-0.137 -0.105,-0.207 -0.034,-0.096 -0.052,-0.192 -0.056,-0.277 0.005,-0.073 0.008,-0.147 0.008,-0.221 l -1.495,-0.09 c -0.009,0.082 -0.014,0.166 -0.015,0.252 -0.047,0.367 -0.268,0.619 -0.639,0.807 -0.401,0.203 -0.899,0.281 -1.235,0.281 -0.451,0 -0.771,-0.07 -0.998,-0.166 -0.18,-0.076 -0.302,-0.168 -0.384,-0.25 -0.084,-0.082 -0.144,-0.176 -0.187,-0.27 -0.053,-0.117 -0.078,-0.236 -0.084,-0.343 0.006,-0.073 0.009,-0.147 0.009,-0.221 z m -0.015,4.252 c 0,-0.086 0.005,-0.17 0.015,-0.252 l 1.495,0.09 c 0,0.074 -0.003,0.148 -0.009,0.221 0.011,0.193 0.085,0.427 0.271,0.613 0.186,0.187 0.573,0.416 1.382,0.416 0.336,0 0.834,-0.078 1.235,-0.281 0.371,-0.188 0.592,-0.44 0.639,-0.807 0.001,-0.086 0.006,-0.17 0.015,-0.252 l 1.495,0.09 c 0,0.074 -0.003,0.148 -0.008,0.221 0.01,0.193 0.084,0.427 0.27,0.613 0.078,0.078 0.191,0.164 0.354,0.236 0.206,0.092 0.493,0.164 0.892,0.178 0.3289998,-0.014 0.7689998,-0.096 1.1319998,-0.279 0.214,-0.11 0.379,-0.241 0.488,-0.401 0.08,-0.117 0.131,-0.252 0.151,-0.406 0,-0.086 0.005,-0.17 0.015,-0.252 l 1.495,0.09 c 0,0.074 -0.003,0.148 -0.009,0.221 0.011,0.193 0.085,0.427 0.27,0.613 0.176,0.176 0.53,0.39 1.246,0.414 0.329,-0.014 0.77,-0.096 1.133,-0.279 0.37,-0.188 0.591,-0.44 0.638,-0.807 0.001,-0.086 0.006,-0.17 0.016,-0.252 l 1.494,0.09 c 0,0.074 -0.003,0.148 -0.008,0.221 0.01,0.193 0.084,0.427 0.27,0.613 0.175,0.176 0.526,0.388 1.236,0.414 0.196,-0.008 0.433,-0.039 0.669,-0.102 0.163,-0.043 0.325,-0.101 0.474,-0.177 0.37,-0.188 0.591,-0.44 0.639,-0.807 l 0.004,-0.137 0.011,-0.115 1.494,0.09 -0.002,0.109 -0.006,0.112 c 0.002,0.037 0.006,0.074 0.013,0.113 0.009,0.049 0.022,0.099 0.04,0.15 0.042,0.121 0.111,0.244 0.217,0.35 0.176,0.176 0.529,0.39 1.246,0.414 0.082,-0.004 0.171,-0.012 0.264,-0.024 0.111,-0.013 0.227,-0.035 0.344,-0.064 0.1,-0.025 0.2,-0.057 0.297,-0.092 0.078,-0.029 0.154,-0.062 0.227,-0.099 0.188,-0.096 0.338,-0.207 0.446,-0.344 0.054,-0.069 0.098,-0.143 0.131,-0.223 0.03,-0.074 0.051,-0.154 0.062,-0.24 l 0.003,-0.1 0.012,-0.152 1.495,0.09 c 0,0.074 -0.003,0.148 -0.009,0.221 0.011,0.193 0.085,0.427 0.271,0.613 0.063,0.064 0.15,0.133 0.268,0.195 0.21,0.111 0.519,0.203 0.977,0.219 0.33,-0.014 0.77,-0.096 1.133,-0.279 0.37,-0.188 0.592,-0.44 0.639,-0.807 l 0.002,-0.094 0.013,-0.158 1.495,0.09 c 0,0.074 -0.003,0.148 -0.009,0.221 0.011,0.193 0.085,0.427 0.27,0.613 0.187,0.187 0.574,0.416 1.383,0.416 v 1.5 c -0.419,0 -0.796,-0.047 -1.132,-0.133 -0.255,-0.066 -0.486,-0.156 -0.693,-0.268 -0.203,-0.107 -0.383,-0.236 -0.54,-0.38 l -0.081,-0.077 -0.022,-0.023 c -0.201,0.18 -0.423,0.324 -0.647,0.437 -0.352,0.178 -0.726,0.295 -1.075,0.364 -0.212,0.043 -0.415,0.068 -0.599,0.08 l -0.131,-0.002 -0.108,0.002 c -0.467,-0.02 -0.877,-0.102 -1.232,-0.236 -0.391,-0.149 -0.715,-0.36 -0.974,-0.622 l -0.023,-0.023 c -0.201,0.18 -0.423,0.324 -0.646,0.437 -0.304,0.155 -0.624,0.26 -0.93,0.331 -0.265,0.06 -0.52,0.099 -0.744,0.113 l -0.132,-0.002 -0.108,0.002 c -0.981,-0.043 -1.711,-0.36 -2.206,-0.858 l -0.022,-0.023 c -0.202,0.18 -0.423,0.324 -0.647,0.437 -0.566,0.288 -1.19,0.415 -1.674,0.444 l -0.132,-0.002 -0.107,0.002 c -0.982,-0.043 -1.712,-0.36 -2.207,-0.858 l -0.022,-0.023 c -0.202,0.18 -0.423,0.324 -0.647,0.437 -0.297,0.151 -0.611,0.258 -0.911,0.329 -0.272,0.064 -0.533,0.101 -0.763,0.115 l -0.132,-0.002 -0.108,0.002 c -0.981,-0.043 -1.711,-0.36 -2.206,-0.858 l -0.022,-0.023 c -0.201,0.18 -0.423,0.324 -0.647,0.437 -0.566,0.288 -1.189,0.415 -1.674,0.444 l -0.1309998,-0.002 -0.108,0.002 c -0.345,-0.016 -0.658,-0.065 -0.941,-0.143 l -0.122,-0.037 -0.144,-0.049 c -0.106,-0.039 -0.206,-0.082 -0.302,-0.129 -0.144,-0.072 -0.277,-0.154 -0.399,-0.244 -0.107,-0.078 -0.207,-0.164 -0.298,-0.256 l -0.023,-0.023 c -0.201,0.18 -0.422,0.324 -0.646,0.437 -0.665,0.338 -1.41,0.444 -1.914,0.444 -1.103,0 -1.911,-0.32 -2.445,-0.858 l -0.023,-0.023 c -0.201,0.18 -0.423,0.324 -0.646,0.437 -0.665,0.338 -1.40999998,0.444 -1.913999981738,0.444 v -1.5 c 0.336000001738,0 0.833000001738,-0.078 1.234999981738,-0.281 0.37,-0.188 0.592,-0.44 0.639,-0.807 z m 0.015,3.748 c -0.01,0.082 -0.015,0.166 -0.015,0.252 -0.047,0.367 -0.269,0.619 -0.639,0.807 -0.40199998,0.203 -0.89899998,0.281 -1.2349999817383,0.281 v 1.5 c 0.1180000017383,0 0.2490000017383,-0.006 0.3890000017383,-0.018 0.083,-0.008 0.169,-0.019 0.258,-0.033 0.40099998,-0.06 0.84899998,-0.18 1.26699998,-0.393 0.223,-0.113 0.445,-0.257 0.646,-0.437 l 0.023,0.023 c 0.534,0.538 1.342,0.858 2.445,0.858 0.214,0 0.47,-0.02 0.746,-0.067 0.375,-0.064 0.785,-0.181 1.168,-0.377 0.224,-0.113 0.445,-0.257 0.646,-0.437 l 0.023,0.023 c 0.495,0.498 1.225,0.815 2.206,0.858 l 0.108,-0.002 0.1309998,0.002 c 0.485,-0.029 1.108,-0.156 1.674,-0.444 0.125,-0.062 0.249,-0.134 0.368,-0.218 l 0.148,-0.108 0.131,-0.111 0.022,0.023 c 0.178,0.178 0.385,0.334 0.624,0.461 0.176,0.094 0.37,0.174 0.581,0.237 0.126,0.037 0.259,0.068 0.398,0.093 0.189,0.036 0.391,0.057 0.603,0.067 l 0.108,-0.002 0.132,0.002 c 0.484,-0.029 1.108,-0.156 1.674,-0.444 0.224,-0.113 0.445,-0.257 0.647,-0.437 l 0.022,0.023 c 0.495,0.498 1.225,0.815 2.207,0.858 l 0.107,-0.002 0.132,0.002 c 0.242,-0.016 0.52,-0.055 0.807,-0.127 l 0.156,-0.043 0.195,-0.059 c 0.174,-0.058 0.347,-0.129 0.516,-0.215 0.224,-0.113 0.445,-0.257 0.647,-0.437 l 0.022,0.023 c 0.495,0.498 1.225,0.815 2.206,0.858 l 0.108,-0.002 0.132,0.002 c 0.484,-0.029 1.108,-0.156 1.674,-0.444 0.067,-0.033 0.135,-0.07 0.202,-0.111 l 0.143,-0.092 0.124,-0.089 c 0.061,-0.045 0.12,-0.094 0.177,-0.145 l 0.023,0.023 c 0.187,0.188 0.407,0.35 0.662,0.481 0.42,0.217 0.933,0.349 1.544,0.377 l 0.108,-0.002 0.131,0.002 c 0.14,-0.01 0.291,-0.026 0.449,-0.051 0.153,-0.025 0.313,-0.06 0.475,-0.105 0.117,-0.032 0.235,-0.069 0.353,-0.112 0.134,-0.051 0.267,-0.109 0.397,-0.176 0.224,-0.113 0.446,-0.257 0.647,-0.437 l 0.022,0.023 c 0.255,0.256 0.571,0.463 0.951,0.61 0.42,0.16 0.917,0.248 1.495,0.248 v -1.5 c -0.809,0 -1.196,-0.229 -1.383,-0.416 -0.185,-0.186 -0.259,-0.42 -0.27,-0.613 0.006,-0.073 0.009,-0.147 0.009,-0.221 l -1.495,-0.09 -0.013,0.158 -0.002,0.094 c -0.047,0.367 -0.269,0.619 -0.639,0.807 -0.363,0.183 -0.803,0.265 -1.133,0.279 -0.716,-0.024 -1.07,-0.238 -1.245,-0.414 -0.186,-0.186 -0.26,-0.42 -0.271,-0.613 0.006,-0.073 0.009,-0.147 0.009,-0.221 l -1.495,-0.09 c -0.01,0.082 -0.015,0.166 -0.015,0.252 -0.017,0.131 -0.056,0.248 -0.116,0.352 -0.039,0.068 -0.088,0.13 -0.146,0.189 -0.065,0.066 -0.142,0.129 -0.23,0.184 l -0.051,0.029 -0.035,0.019 -0.061,0.034 c -0.281,0.142 -0.608,0.222 -0.895,0.257 l -0.156,0.016 -0.084,0.006 c -0.714,-0.026 -1.067,-0.238 -1.243,-0.414 -0.186,-0.186 -0.259,-0.42 -0.27,-0.613 l 0.006,-0.11 0.002,-0.111 -1.494,-0.09 -0.011,0.117 -0.004,0.135 c -0.048,0.367 -0.269,0.619 -0.639,0.807 -0.363,0.183 -0.804,0.265 -1.134,0.279 -0.239,-0.008 -0.438,-0.037 -0.604,-0.08 -0.329,-0.084 -0.524,-0.217 -0.641,-0.334 -0.186,-0.186 -0.26,-0.42 -0.27,-0.613 0.005,-0.073 0.008,-0.147 0.008,-0.221 l -1.494,-0.09 -0.009,0.092 -0.007,0.16 c -0.047,0.367 -0.268,0.619 -0.638,0.807 -0.363,0.183 -0.804,0.265 -1.133,0.279 -0.716,-0.024 -1.07,-0.238 -1.246,-0.414 -0.185,-0.186 -0.259,-0.42 -0.27,-0.613 0.006,-0.073 0.009,-0.147 0.009,-0.221 l -1.495,-0.09 c -0.01,0.082 -0.015,0.166 -0.015,0.252 -0.028,0.217 -0.118,0.394 -0.263,0.541 -0.099,0.102 -0.225,0.189 -0.376,0.266 -0.363,0.183 -0.803,0.265 -1.1329998,0.279 -0.716,-0.024 -1.069,-0.238 -1.245,-0.414 -0.186,-0.186 -0.26,-0.42 -0.27,-0.613 0.005,-0.073 0.008,-0.147 0.008,-0.221 l -1.495,-0.09 c -0.009,0.082 -0.014,0.166 -0.015,0.252 -0.047,0.367 -0.268,0.619 -0.639,0.807 -0.401,0.203 -0.899,0.281 -1.235,0.281 -0.323,0 -0.579,-0.037 -0.782,-0.092 -0.304,-0.084 -0.488,-0.211 -0.6,-0.324 -0.186,-0.186 -0.26,-0.42 -0.271,-0.613 0.006,-0.073 0.009,-0.147 0.009,-0.221 z m -0.015,4.252 c 0,-0.086 0.005,-0.17 0.015,-0.252 l 1.495,0.09 c 0,0.074 -0.003,0.148 -0.009,0.221 0.003,0.058 0.012,0.121 0.029,0.183 0.019,0.076 0.049,0.154 0.092,0.231 0.038,0.07 0.088,0.136 0.15,0.199 0.186,0.187 0.573,0.416 1.382,0.416 0.336,0 0.834,-0.078 1.235,-0.281 0.159,-0.08 0.29,-0.172 0.392,-0.28 0.077,-0.082 0.137,-0.172 0.179,-0.273 l 0.021,-0.053 0.028,-0.094 0.019,-0.107 c 0.001,-0.086 0.006,-0.17 0.015,-0.252 l 1.495,0.09 -0.002,0.111 -0.006,0.11 0.012,0.105 c 0.008,0.047 0.019,0.096 0.035,0.145 0.024,0.072 0.058,0.144 0.102,0.212 l 0.05,0.071 0.027,0.033 0.044,0.047 c 0.176,0.176 0.529,0.39 1.245,0.414 0.3299998,-0.014 0.7699998,-0.096 1.1329998,-0.279 0.173,-0.088 0.314,-0.19 0.419,-0.311 0.058,-0.066 0.106,-0.139 0.142,-0.219 0.019,-0.043 0.035,-0.086 0.048,-0.131 0.013,-0.046 0.023,-0.095 0.03,-0.146 l 0.005,-0.135 0.01,-0.117 1.495,0.09 c 0,0.074 -0.003,0.148 -0.009,0.221 0.011,0.193 0.085,0.427 0.27,0.613 0.108,0.107 0.283,0.23 0.568,0.314 0.179,0.053 0.401,0.09 0.678,0.1 0.329,-0.014 0.77,-0.096 1.133,-0.279 0.37,-0.188 0.591,-0.44 0.638,-0.807 0.001,-0.086 0.006,-0.17 0.016,-0.252 l 1.494,0.09 c 0,0.074 -0.003,0.148 -0.008,0.221 0.01,0.193 0.084,0.427 0.27,0.613 0.176,0.176 0.53,0.39 1.246,0.414 0.329,-0.014 0.77,-0.096 1.133,-0.279 0.188,-0.096 0.338,-0.209 0.446,-0.344 0.042,-0.053 0.077,-0.108 0.106,-0.168 0.044,-0.09 0.073,-0.188 0.087,-0.295 0,-0.086 0.005,-0.17 0.015,-0.252 l 1.494,0.09 c 0,0.074 -0.003,0.148 -0.008,0.221 l 0.007,0.074 0.016,0.088 0.03,0.103 c 0.025,0.07 0.059,0.143 0.104,0.211 0.032,0.047 0.07,0.094 0.113,0.137 0.176,0.176 0.529,0.39 1.246,0.414 0.329,-0.014 0.769,-0.096 1.132,-0.279 0.37,-0.188 0.592,-0.44 0.639,-0.807 0,-0.086 0.005,-0.17 0.015,-0.252 l 1.495,0.09 c 0,0.074 -0.003,0.148 -0.009,0.221 0.011,0.193 0.085,0.427 0.271,0.613 0.175,0.176 0.529,0.39 1.245,0.414 0.33,-0.014 0.77,-0.096 1.133,-0.279 0.205,-0.104 0.365,-0.229 0.474,-0.381 0.088,-0.121 0.144,-0.262 0.165,-0.426 l 0.002,-0.094 0.013,-0.158 1.495,0.09 -0.003,0.133 -0.006,0.088 c 0.011,0.193 0.085,0.427 0.27,0.613 0.187,0.187 0.574,0.416 1.383,0.416 v 1.5 c -1.103,0 -1.911,-0.32 -2.446,-0.858 l -0.022,-0.023 c -0.201,0.18 -0.423,0.324 -0.647,0.437 -0.566,0.288 -1.19,0.415 -1.674,0.444 l -0.131,-0.002 -0.108,0.002 c -0.681,-0.029 -1.241,-0.192 -1.685,-0.455 -0.196,-0.115 -0.37,-0.25 -0.521,-0.403 l -0.023,-0.023 c -0.201,0.18 -0.423,0.324 -0.646,0.437 -0.566,0.288 -1.19,0.415 -1.674,0.444 l -0.132,-0.002 -0.108,0.002 c -0.981,-0.043 -1.711,-0.36 -2.206,-0.858 l -0.022,-0.023 c -0.119,0.105 -0.245,0.199 -0.374,0.283 -0.09,0.057 -0.181,0.108 -0.273,0.154 -0.566,0.288 -1.19,0.415 -1.674,0.444 l -0.132,-0.002 -0.107,0.002 c -0.982,-0.043 -1.712,-0.36 -2.207,-0.858 l -0.022,-0.023 -0.118,0.1 -0.064,0.05 c -0.111,0.082 -0.226,0.157 -0.342,0.221 l -0.123,0.066 c -0.145,0.075 -0.295,0.137 -0.444,0.19 -0.433,0.156 -0.87,0.232 -1.23,0.254 l -0.132,-0.002 -0.108,0.002 c -0.607,-0.028 -1.118,-0.158 -1.536,-0.373 -0.258,-0.131 -0.481,-0.295 -0.67,-0.485 l -0.022,-0.023 c -0.096,0.086 -0.196,0.162 -0.299,0.232 -0.114,0.079 -0.23,0.147 -0.348,0.205 -0.566,0.288 -1.189,0.415 -1.674,0.444 l -0.1309998,-0.002 -0.108,0.002 c -0.64,-0.028 -1.172,-0.172 -1.603,-0.408 -0.083,-0.045 -0.162,-0.094 -0.238,-0.147 l -0.064,-0.047 c -0.045,-0.031 -0.088,-0.064 -0.13,-0.099 -0.06,-0.049 -0.117,-0.102 -0.171,-0.157 l -0.023,-0.023 c -0.201,0.18 -0.422,0.324 -0.646,0.437 -0.665,0.338 -1.41,0.444 -1.914,0.444 -0.451,0 -0.853,-0.053 -1.206,-0.152 -0.512,-0.145 -0.924,-0.387 -1.239,-0.706 l -0.023,-0.023 c -0.201,0.18 -0.423,0.324 -0.646,0.437 -0.665,0.338 -1.40999998,0.444 -1.913999981738,0.444 v -1.5 c 0.336000001738,0 0.833000001738,-0.078 1.234999981738,-0.281 0.37,-0.188 0.592,-0.44 0.639,-0.807 z m 0.015,3.748 c -0.01,0.082 -0.015,0.166 -0.015,0.252 -0.024,0.187 -0.093,0.344 -0.205,0.478 -0.107,0.129 -0.252,0.237 -0.434,0.329 -0.088,0.045 -0.181,0.084 -0.27499998,0.117 -0.133,0.045 -0.27,0.082 -0.403,0.107 -0.204,0.039 -0.398,0.057 -0.5570000017383,0.057 v 1.5 C 0.50400122,22.839998 1.2490012,22.733998 1.9140012,22.395998 c 0.223,-0.113 0.445,-0.257 0.646,-0.437 l 0.023,0.023 c 0.534,0.538 1.342,0.858 2.445,0.858 0.312,0 0.716,-0.039 1.136,-0.151 0.086,-0.021 0.172,-0.048 0.259,-0.078 l 0.196,-0.07 c 0.109,-0.043 0.217,-0.09 0.323,-0.145 0.126,-0.064 0.252,-0.138 0.374,-0.222 0.093,-0.065 0.185,-0.137 0.272,-0.215 l 0.023,0.023 c 0.214,0.215 0.472,0.397 0.775,0.538 0.398,0.183 0.874,0.296 1.431,0.32 l 0.108,-0.002 0.1309998,0.002 c 0.485,-0.029 1.108,-0.156 1.674,-0.444 0.224,-0.113 0.446,-0.257 0.647,-0.437 l 0.022,0.023 c 0.287,0.288 0.651,0.514 1.098,0.661 0.326,0.109 0.695,0.179 1.108,0.197 l 0.108,-0.002 0.132,0.002 c 0.102,-0.006 0.21,-0.016 0.323,-0.031 0.156,-0.024 0.321,-0.055 0.488,-0.096 0.126,-0.031 0.254,-0.068 0.381,-0.111 0.099,-0.036 0.198,-0.073 0.295,-0.118 l 0.187,-0.088 c 0.224,-0.113 0.445,-0.257 0.647,-0.437 l 0.022,0.023 c 0.495,0.498 1.225,0.815 2.207,0.858 l 0.107,-0.002 0.132,0.002 c 0.484,-0.029 1.108,-0.156 1.674,-0.444 0.224,-0.113 0.445,-0.257 0.647,-0.437 l 0.022,0.023 c 0.495,0.498 1.225,0.815 2.206,0.858 l 0.11,-0.002 0.13,0.002 c 0.075,-0.004 0.154,-0.014 0.235,-0.024 l 0.068,-0.011 c 0.427,-0.055 0.917,-0.178 1.371,-0.409 0.223,-0.113 0.445,-0.257 0.646,-0.437 l 0.023,0.023 c 0.495,0.498 1.225,0.815 2.206,0.858 0.035,0 0.071,-0.002 0.108,-0.002 0.043,0 0.087,0.002 0.131,0.002 0.484,-0.029 1.108,-0.156 1.674,-0.444 0.224,-0.113 0.446,-0.257 0.647,-0.437 l 0.022,0.023 c 0.535,0.538 1.343,0.858 2.446,0.858 v -1.5 c -0.596,0 -0.963,-0.123 -1.19,-0.264 -0.081,-0.051 -0.143,-0.103 -0.193,-0.152 -0.185,-0.186 -0.259,-0.42 -0.27,-0.613 0.006,-0.073 0.009,-0.147 0.009,-0.221 l -1.495,-0.09 -0.012,0.145 -0.003,0.107 c -0.047,0.367 -0.269,0.619 -0.639,0.807 -0.363,0.183 -0.803,0.265 -1.133,0.279 -0.313,-0.01 -0.557,-0.059 -0.747,-0.121 -0.244,-0.082 -0.4,-0.194 -0.498,-0.293 -0.186,-0.186 -0.26,-0.42 -0.271,-0.613 0.006,-0.073 0.009,-0.147 0.009,-0.221 l -1.495,-0.09 -0.012,0.145 -0.003,0.107 c -0.047,0.367 -0.269,0.619 -0.639,0.807 -0.169,0.086 -0.356,0.148 -0.54,0.193 -0.21,0.053 -0.416,0.078 -0.592,0.086 -0.716,-0.024 -1.07,-0.238 -1.246,-0.414 -0.052,-0.053 -0.095,-0.11 -0.131,-0.168 -0.032,-0.053 -0.058,-0.106 -0.078,-0.158 -0.037,-0.098 -0.056,-0.198 -0.061,-0.287 0.005,-0.073 0.008,-0.147 0.008,-0.221 l -1.494,-0.09 c -0.01,0.082 -0.015,0.166 -0.015,0.252 -0.048,0.367 -0.269,0.619 -0.639,0.807 -0.363,0.183 -0.804,0.265 -1.133,0.279 -0.716,-0.024 -1.07,-0.238 -1.246,-0.414 -0.186,-0.186 -0.26,-0.42 -0.27,-0.613 0.005,-0.073 0.008,-0.147 0.008,-0.221 l -1.494,-0.09 -0.009,0.092 -0.007,0.16 c -0.047,0.367 -0.268,0.619 -0.638,0.807 -0.228,0.115 -0.487,0.189 -0.729,0.234 -0.091,0.016 -0.18,0.027 -0.264,0.035 l -0.14,0.01 c -0.716,-0.024 -1.07,-0.238 -1.246,-0.414 -0.185,-0.186 -0.259,-0.42 -0.27,-0.613 0.006,-0.073 0.009,-0.147 0.009,-0.221 l -1.495,-0.09 c -0.01,0.082 -0.015,0.166 -0.015,0.252 -0.047,0.367 -0.269,0.619 -0.639,0.807 -0.363,0.183 -0.803,0.265 -1.1329998,0.279 -0.495,-0.018 -0.816,-0.125 -1.026,-0.246 l -0.073,-0.047 c -0.035,-0.024 -0.067,-0.049 -0.095,-0.074 l -0.051,-0.047 c -0.095,-0.094 -0.161,-0.201 -0.204,-0.311 -0.041,-0.103 -0.061,-0.207 -0.066,-0.302 0.005,-0.073 0.008,-0.147 0.008,-0.221 l -1.495,-0.09 -0.012,0.145 -0.003,0.107 c -0.047,0.367 -0.268,0.619 -0.639,0.807 -0.401,0.203 -0.899,0.281 -1.235,0.281 -0.809,0 -1.196,-0.229 -1.382,-0.416 -0.093,-0.092 -0.158,-0.197 -0.201,-0.303 -0.043,-0.105 -0.064,-0.213 -0.07,-0.31 0.006,-0.073 0.009,-0.147 0.009,-0.221 z"
     fill="#0170b7"
     id="path30" />
</svg>
