<svg width="50" height="50" viewBox="0 0 50 50" fill="none" xmlns="http://www.w3.org/2000/svg">
<path fill-rule="evenodd" clip-rule="evenodd" d="M39.1403 37.5635H30.6013C30.0403 38.2924 29.3773 38.96 28.6163 39.5437C28.3473 39.7496 28.0723 39.9408 27.7913 40.1176H39.1403C40.5503 40.1176 41.6943 38.9741 41.6943 37.5635V16.6041C41.6943 15.8823 41.3893 15.1943 40.8533 14.7101L34.3783 8.85155C33.9093 8.42668 33.2983 8.19141 32.6653 8.19141H16.6643C15.2533 8.19141 14.1103 9.33492 14.1103 10.7455V24.5309C14.6273 23.8981 15.2253 23.3151 15.9003 22.7974C16.1493 22.6064 16.4043 22.4279 16.6643 22.262V10.7455H32.6653L39.1403 16.6041V37.5635ZM18.7063 16.8332C18.7063 16.5746 18.9443 16.365 19.2363 16.365L32.7343 16.3649C33.0273 16.3649 33.2653 16.5746 33.2653 16.8332V18.7062C33.2653 18.9648 33.0273 19.1745 32.7343 19.1745H19.2363C18.9443 19.1745 18.7063 18.9648 18.7063 18.7062V16.8332ZM17.4993 24.8711C14.5643 27.1226 13.5633 30.9668 14.8133 34.2099L8.98934 38.6761C8.22534 39.2622 8.07934 40.3619 8.66334 41.1325C9.24734 41.9031 10.3403 42.0526 11.1043 41.4666L16.7733 37.1195C19.5553 39.7286 23.9283 39.9886 27.1103 37.5485C30.6553 34.8294 31.3783 29.7873 28.7243 26.2865C26.0703 22.7858 21.0453 22.1521 17.4993 24.8711ZM18.9053 26.7578C16.4223 28.6623 15.9163 32.194 17.7753 34.6461C19.6333 37.0981 23.1543 37.542 25.6373 35.6375C28.1203 33.7329 28.6263 30.2012 26.7683 27.7492C24.9093 25.2971 21.3893 24.8532 18.9053 26.7578ZM36.5613 31.9539H32.7853C32.8673 31.0199 32.8263 30.0747 32.6573 29.1444H36.5613C36.8543 29.1444 37.0913 29.3541 37.0913 29.6127V31.4857C37.0913 31.7443 36.8543 31.9539 36.5613 31.9539ZM31.2933 25.5564H36.5643C36.8573 25.5564 37.0943 25.3468 37.0943 25.0882V23.2152C37.0943 22.9566 36.8573 22.7469 36.5643 22.7469H28.7823C29.4883 23.2939 30.1353 23.9427 30.7023 24.6913C30.9163 24.9729 31.1133 25.2616 31.2933 25.5564ZM24.0663 29.2663C24.0663 30.1831 23.3233 30.9264 22.4063 30.9264C21.4893 30.9264 20.7463 30.1831 20.7463 29.2663C20.7463 28.3494 21.4893 27.6061 22.4063 27.6061C23.3233 27.6061 24.0663 28.3494 24.0663 29.2663ZM20.8913 30.8143C19.6943 31.5147 19.2173 32.9418 19.2173 33.4801H25.6033C25.6033 32.9418 25.1263 31.5147 23.9293 30.8143C23.5383 31.198 23.0023 31.4346 22.4103 31.4346C21.8183 31.4346 21.2823 31.198 20.8913 30.8143Z" fill="#005C96"/>
</svg>
