<?xml version="1.0" encoding="UTF-8" standalone="no"?>
<svg
   width="30.962646"
   height="26.596748"
   viewBox="0 0 30.962646 26.596748"
   fill="none"
   version="1.1"
   id="svg62"
   sodipodi:docname="policies_icons.svg"
   xmlns:inkscape="http://www.inkscape.org/namespaces/inkscape"
   xmlns:sodipodi="http://sodipodi.sourceforge.net/DTD/sodipodi-0.dtd"
   xmlns="http://www.w3.org/2000/svg"
   xmlns:svg="http://www.w3.org/2000/svg">
  <defs
     id="defs66" />
  <sodipodi:namedview
     id="namedview64"
     pagecolor="#ffffff"
     bordercolor="#000000"
     borderopacity="0.25"
     inkscape:showpageshadow="2"
     inkscape:pageopacity="0.0"
     inkscape:pagecheckerboard="0"
     inkscape:deskcolor="#d1d1d1"
     showgrid="false" />
  <path
     fill-rule="evenodd"
     clip-rule="evenodd"
     d="m 2.003253,26.596752 h 26.957 c 1.552,0 2.512,-1.692 1.717,-3.024 l -13.478,-22.59700033 c -0.776,-1.301 -2.66,-1.301 -3.435,0 L 0.28525299,23.572752 c -0.795,1.332 0.166,3.024 1.71800001,3.024 z m 15.184,-3.903 c 0.021,-0.109 0.031,-0.222 0.031,-0.339 0,-0.235 -0.045,-0.457 -0.137,-0.668 -0.091,-0.211 -0.217,-0.391 -0.377,-0.543 -0.083,-0.082 -0.174,-0.153 -0.275,-0.215 -0.085,-0.055 -0.176,-0.102 -0.273,-0.145 -0.214,-0.093 -0.442,-0.136 -0.686,-0.136 -0.244,0 -0.473,0.043 -0.686,0.136 -0.213,0.09 -0.4,0.211 -0.56,0.36 -0.16,0.152 -0.286,0.332 -0.377,0.543 -0.092,0.211 -0.137,0.433 -0.137,0.668 0,0.242 0.045,0.468 0.137,0.679 0.091,0.211 0.217,0.395 0.377,0.555 0.16,0.156 0.347,0.281 0.56,0.371 0.132,0.055 0.269,0.094 0.413,0.117 0.088,0.012 0.179,0.02 0.273,0.02 0.244,0 0.472,-0.047 0.686,-0.137 0.213,-0.09 0.396,-0.215 0.548,-0.371 0.16,-0.16 0.286,-0.344 0.377,-0.555 0.047,-0.109 0.083,-0.222 0.106,-0.34 z m 0.203,-11.976 c 0.061,-0.621 0.091,-1.1720003 0.091,-1.6520003 0,-0.274 -0.053,-0.524 -0.16,-0.758 -0.106,-0.242 -0.251,-0.453 -0.434,-0.633 -0.183,-0.184 -0.396,-0.32 -0.64,-0.418 -0.14,-0.059 -0.285,-0.102 -0.434,-0.129 -0.112,-0.02 -0.226,-0.031 -0.343,-0.031 -0.203,0 -0.397,0.027 -0.583,0.09 l -0.194,0.07 c -0.236,0.098 -0.446,0.234 -0.629,0.418 -0.183,0.18 -0.328,0.391 -0.434,0.633 -0.099,0.234 -0.149,0.484 -0.149,0.758 0,0.48 0.027,1.0270003 0.08,1.6400003 0.061,0.602 0.137,1.246 0.229,1.934 0.091,0.679 0.194,1.386 0.308,2.125 l 0.366,2.195 c 0.069,0.469 0.141,0.918 0.217,1.356 0.076,0.437 0.145,0.859 0.206,1.269 0.023,0.148 0.088,0.273 0.194,0.371 0.115,0.09 0.244,0.137 0.389,0.137 0.083,0 0.161,-0.016 0.233,-0.043 0.059,-0.024 0.115,-0.055 0.167,-0.094 0.114,-0.098 0.183,-0.223 0.205,-0.371 l 0.195,-1.223 0.206,-1.277 0.365,-2.242 0.178,-1.149 0.142,-1.019 c 0.099,-0.695 0.175,-1.348 0.229,-1.957 z"
     fill="#0170b7"
     id="path42" />
</svg>
