<?xml version="1.0" encoding="UTF-8" standalone="no"?>
<svg
   width="29.161606"
   height="31.617666"
   viewBox="0 0 29.161606 31.617666"
   fill="none"
   version="1.1"
   id="svg62"
   sodipodi:docname="policies_icons.svg"
   xmlns:inkscape="http://www.inkscape.org/namespaces/inkscape"
   xmlns:sodipodi="http://sodipodi.sourceforge.net/DTD/sodipodi-0.dtd"
   xmlns="http://www.w3.org/2000/svg"
   xmlns:svg="http://www.w3.org/2000/svg">
  <defs
     id="defs66" />
  <sodipodi:namedview
     id="namedview64"
     pagecolor="#ffffff"
     bordercolor="#000000"
     borderopacity="0.25"
     inkscape:showpageshadow="2"
     inkscape:pageopacity="0.0"
     inkscape:pagecheckerboard="0"
     inkscape:deskcolor="#d1d1d1"
     showgrid="false" />
  <path
     d="m 2.8730081,21.561466 c 0.7963,3.2179 3.9816,2.0112 5.4748,1.0056 2.9744999,1.2878 4.5510999,-0.4494 4.9770999,-2.0109 v 8.5475 c -0.926,-0.9865 -3.4259999,0.0135 -3.4259999,1.0135 -1.5926,0 -1.8829,0.8301 -2.0488,1.5005 l 16.0487999,-5e-4 c 0,-0.5 -1.0872,-1.5 -2.5,-1.5 -0.887,-1.5163 -2.5,-1.5163 -3.5947,-1.0135 v -7.5419 c 1.5927,1.2067 3.9817,0.1674 4.9771,-0.5031 3.583698,0.8042 4.479698,-2.3462 4.479698,-4.022 3.638,-2.419 1.138,-5.919 0,-6.5363 0.398,-1.6089003 -1.862098,-3.0171003 -2.986598,-3.0171003 -0.7963,-4.4248 -4.3134,-4.8606 -5.9725,-4.5253 -1.9908,-4.4246 -5.578,-2.84649996 -7.403,-1.8408 -3.5834999,-1.20669996 -5.3714999,0.8354 -5.5373999,2.3438 -3.1853,0 -3.6498,2.6815 -3.4839,4.0223 -2.9788,3.0171003 -1.97869996,5.6344003 0,7.5419003 -2.78719996,3.2179 -0.4978,5.6983 0.9954,6.5363 z"
     fill="#0170b7"
     id="path4"
     inkscape:export-filename="..\Desktop\path4.svg"
     inkscape:export-xdpi="96"
     inkscape:export-ydpi="96" />
</svg>
