<?xml version="1.0" encoding="UTF-8" standalone="no"?>
<svg
   width="30.585068"
   height="27.99704"
   viewBox="0 0 30.585068 27.99704"
   fill="none"
   version="1.1"
   id="svg62"
   sodipodi:docname="policies_icons.svg"
   xmlns:inkscape="http://www.inkscape.org/namespaces/inkscape"
   xmlns:sodipodi="http://sodipodi.sourceforge.net/DTD/sodipodi-0.dtd"
   xmlns="http://www.w3.org/2000/svg"
   xmlns:svg="http://www.w3.org/2000/svg">
  <defs
     id="defs66" />
  <sodipodi:namedview
     id="namedview64"
     pagecolor="#ffffff"
     bordercolor="#000000"
     borderopacity="0.25"
     inkscape:showpageshadow="2"
     inkscape:pageopacity="0.0"
     inkscape:pagecheckerboard="0"
     inkscape:deskcolor="#d1d1d1"
     showgrid="false" />
  <path
     fill-rule="evenodd"
     clip-rule="evenodd"
     d="m 15.333566,9.3878662e-4 c 0.242,0.0118000034 0.481,0.10940000338 0.666,0.29300000338 l 6.586,6.58590001 v -5.8789 c 0,-0.18360001 0.05,-0.35930001 0.139,-0.50780001 0.076,-0.1289 0.18,-0.2383 0.303,-0.3203 0.16,-0.1094 0.352,-0.17190000338 0.558,-0.17190000338 0.552,0 1,0.44930000338 1,1.00000001338 v 7.8789 l 5.707,5.7071002 c 0.39,0.3906 0.39,1.0234 0,1.414 -0.191,0.1914 -0.441,0.2891 -0.691,0.293 -0.261,0.0039 -0.524,-0.0937 -0.723,-0.293 l -12.879,-12.8789002 c -0.119,-0.1172 -0.26,-0.1992 -0.41,-0.2461 -0.187,-0.0586 -0.388,-0.0625 -0.576,-0.0078 -0.157,0.043 -0.305,0.1289 -0.428,0.2539 L 1.7065663,16.000939 c -0.207,0.2071 -0.481,0.3047 -0.75199996,0.293 -0.241,-0.0117 -0.478,-0.1094 -0.662,-0.293 -0.187,-0.1875 -0.285,-0.4296 -0.29199999723,-0.6757 -0.009000003,-0.2657 0.0889999972,-0.5352 0.29199999723,-0.7383 L 14.585566,0.29393879 c 0.205,-0.207 0.478,-0.3047 0.748,-0.29300000338 z M 1.7925663,26.997039 v -9.5742 c 0,-0.2734 0.11,-0.5312 0.306,-0.7226 L 14.585566,4.6767388 c 0.153,-0.1484 0.341,-0.2383 0.537,-0.2656 0.305,-0.0469 0.629,0.0469 0.864,0.2812 l 12.013,12.0118002 c 0.188,0.1875 0.293,0.4414 0.293,0.707 v 9.5859 c 0,0.5508 -0.448,1 -1,1 H 2.7925663 c -0.334,0 -0.63,-0.164 -0.811,-0.4179 -0.119,-0.1641 -0.189,-0.3633 -0.189,-0.5821 z m 9.6459997,-10.5234 c 0.04,-0.0625 0.087,-0.1211 0.14,-0.1758 0.182,-0.1875 0.434,-0.3008 0.714,-0.3008 h 6 c 0.552,0 1,0.4493 1,1 v 8 c 0,0.5508 -0.448,1 -1,1 h -6 c -0.552,0 -1,-0.4492 -1,-1 v -8 c 0,-0.1914 0.053,-0.3711 0.146,-0.5234 z"
     fill="#0170b7"
     id="path6" />
</svg>
