<?xml version="1.0" encoding="UTF-8" standalone="no"?>
<svg
   width="30.392899"
   height="29.816978"
   viewBox="0 0 30.392899 29.816978"
   fill="none"
   version="1.1"
   id="svg62"
   sodipodi:docname="policies_icons.svg"
   xmlns:inkscape="http://www.inkscape.org/namespaces/inkscape"
   xmlns:sodipodi="http://sodipodi.sourceforge.net/DTD/sodipodi-0.dtd"
   xmlns="http://www.w3.org/2000/svg"
   xmlns:svg="http://www.w3.org/2000/svg">
  <defs
     id="defs66" />
  <sodipodi:namedview
     id="namedview64"
     pagecolor="#ffffff"
     bordercolor="#000000"
     borderopacity="0.25"
     inkscape:showpageshadow="2"
     inkscape:pageopacity="0.0"
     inkscape:pagecheckerboard="0"
     inkscape:deskcolor="#d1d1d1"
     showgrid="false" />
  <path
     fill-rule="evenodd"
     clip-rule="evenodd"
     d="M 25.013994,0.99999801 V 3.499998 c 0,0.359 0.152,0.648 0.25,0.812 0.061,0.102 0.133,0.204 0.208,0.301 l 0.178,0.227 0.39,0.461 0.097,0.113 0.376,0.445 0.225,0.27 c 1.513,1.863 1.783,3.289 1.606,4.234 -0.176,0.934 -0.836,1.621 -1.692,1.953 -0.871,0.34 -1.831,0.27 -2.517,-0.191 -0.505,-0.34 -0.976,-0.969 -1.103,-2.063 -0.063,-0.55 -0.466,-1.027 -1.018,-1.062 -0.31,-0.02 -0.599,0.105 -0.785,0.316 -0.146,0.164 -0.229,0.379 -0.214,0.622 0.114,1.761 0.854,3.074 2.004,3.843 1.314,0.883 2.979,0.938 4.358,0.403 0.953,-0.372 1.822,-1.043 2.38,-1.981 0.259,-0.433 0.45,-0.926 0.553,-1.473 0.322,-1.71 -0.282,-3.722 -2.019,-5.859 -0.236,-0.293 -0.45,-0.543 -0.635,-0.758 l -0.105,-0.125 -0.354,-0.418 c -0.123,-0.148 -0.183,-0.34 -0.183,-0.531 V 0.99999801 c 0,-0.227 -0.076,-0.438 -0.204,-0.605 -0.183,-0.239 -0.471,-0.3949999997461 -0.796,-0.3949999997461 -0.552,0 -1,0.4489999997461 -1,0.9999999997461 z M 9.4439936,12.011998 c 4.9690004,-0.18 9.0100004,1.902 11.2500004,3.484 3.186,0.793 5.547,2.469 6.153,4.481 -0.572,0.371 -1.441,0.839 -2.33,0.98 -0.109,0.016 -0.134,0.184 -0.03,0.223 l 0.29,0.101 c 0.331,0.114 0.708,0.242 1.074,0.375 0.359,0.129 0.708,0.262 0.991,0.387 -0.735,2.395 -3.945,4.301 -8.07,4.82 l -0.209,0.219 c -0.249,0.258 -0.53,0.535 -0.829,0.816 -0.748,0.707 -1.608,1.438 -2.355,1.891 -0.038,0.023 -0.077,0.031 -0.116,0.027 -0.034,-0.004 -0.068,-0.015 -0.097,-0.035 -0.062,-0.043 -0.102,-0.121 -0.091,-0.207 0.081,-0.664 0.094,-1.726 -0.172,-2.644 -3.911,-0.34 -7.1090004,-1.914 -8.3470004,-4.004 l -0.056,0.074 c -1.2,1.602 -4.833,2 -6.5000000111327,2 C 0.33299359,24.167998 1.4999936,22.101998 1.4999936,20.499998 c 0,-1.211 -0.66700001,-2.875 -1.13600001,-4.047 -0.152,-0.379 -0.283,-0.707 -0.3640000011327,-0.953 3.2000000111327,0.398 5.6670000111327,2.5 6.5000000111327,3.5 l 0.056,0.078 c 0.688,-1.16 1.973,-2.164 3.6570004,-2.883 0.703,-1.355 -0.167,-2.945 -0.9150004,-3.836 -0.11,-0.132 -0.027,-0.343 0.146,-0.347 z m 12.5560004,6.988 c 0,0.367 -0.199,0.691 -0.495,0.863 -0.148,0.086 -0.321,0.137 -0.505,0.137 -0.552,0 -1,-0.449 -1,-1 0,-0.551 0.448,-1 1,-1 0.104,0 0.203,0.02 0.297,0.047 -0.093,0.039 -0.17,0.105 -0.223,0.187 -0.047,0.078 -0.074,0.168 -0.074,0.266 0,0.277 0.224,0.5 0.5,0.5 0.207,0 0.379,-0.117 0.455,-0.297 0.029,0.094 0.045,0.195 0.045,0.297 z"
     fill="#0170b7"
     id="path38" />
</svg>
