<svg width="51" height="50" viewBox="0 0 51 50" fill="none" xmlns="http://www.w3.org/2000/svg">
<path fill-rule="evenodd" clip-rule="evenodd" d="M39.3408 37.5634H30.8018C30.2408 38.2923 29.5778 38.9599 28.8168 39.5436C28.5478 39.7495 28.2728 39.9407 27.9918 40.1175H39.3408C40.7508 40.1175 41.8948 38.974 41.8948 37.5634V16.604C41.8948 15.8822 41.5898 15.1942 41.0538 14.71L34.5788 8.85142C34.1098 8.42655 33.4988 8.19128 32.8658 8.19128H16.8648C15.4538 8.19128 14.3108 9.33479 14.3108 10.7454V24.5308C14.8278 23.898 15.4258 23.315 16.1008 22.7973C16.3498 22.6063 16.6048 22.4278 16.8648 22.2619V10.7454H32.8658L39.3408 16.604V37.5634ZM18.9068 16.8331C18.9068 16.5745 19.1448 16.3649 19.4368 16.3649L32.9348 16.3648C33.2278 16.3648 33.4658 16.5745 33.4658 16.8331V18.7061C33.4658 18.9647 33.2278 19.1744 32.9348 19.1744H19.4368C19.1448 19.1744 18.9068 18.9647 18.9068 18.7061V16.8331ZM17.6998 24.871C14.7648 27.1225 13.7638 30.9667 15.0138 34.2098L9.18978 38.676C8.42578 39.2621 8.27978 40.3618 8.86378 41.1324C9.44778 41.903 10.5408 42.0525 11.3048 41.4665L16.9738 37.1194C19.7558 39.7285 24.1288 39.9885 27.3108 37.5484C30.8558 34.8293 31.5788 29.7872 28.9248 26.2864C26.2708 22.7857 21.2458 22.152 17.6998 24.871ZM19.1058 26.7577C16.6228 28.6622 16.1168 32.1939 17.9758 34.646C19.8338 37.098 23.3548 37.5419 25.8378 35.6374C28.3208 33.7328 28.8268 30.2011 26.9688 27.7491C25.1098 25.297 21.5898 24.8531 19.1058 26.7577ZM36.7618 31.9538H32.9858C33.0678 31.0198 33.0268 30.0746 32.8578 29.1443H36.7618C37.0548 29.1443 37.2918 29.354 37.2918 29.6126V31.4856C37.2918 31.7442 37.0548 31.9538 36.7618 31.9538ZM31.4938 25.5563H36.7648C37.0578 25.5563 37.2948 25.3467 37.2948 25.0881V23.2151C37.2948 22.9565 37.0578 22.7468 36.7648 22.7468H28.9828C29.6888 23.2938 30.3358 23.9426 30.9028 24.6912C31.1168 24.9728 31.3138 25.2615 31.4938 25.5563ZM24.2668 29.2662C24.2668 30.183 23.5238 30.9263 22.6068 30.9263C21.6898 30.9263 20.9468 30.183 20.9468 29.2662C20.9468 28.3493 21.6898 27.606 22.6068 27.606C23.5238 27.606 24.2668 28.3493 24.2668 29.2662ZM21.0918 30.8142C19.8948 31.5146 19.4178 32.9417 19.4178 33.48H25.8038C25.8038 32.9417 25.3268 31.5146 24.1298 30.8142C23.7388 31.1979 23.2028 31.4345 22.6108 31.4345C22.0188 31.4345 21.4828 31.1979 21.0918 30.8142Z" fill="#005C96"/>
</svg>
