<?xml version="1.0" encoding="UTF-8" standalone="no"?>
<!-- Created with Inkscape (http://www.inkscape.org/) -->

<svg
   width="11.189457mm"
   height="6.4822922mm"
   viewBox="0 0 11.189457 6.4822922"
   version="1.1"
   id="svg506"
   xmlns:inkscape="http://www.inkscape.org/namespaces/inkscape"
   xmlns:sodipodi="http://sodipodi.sourceforge.net/DTD/sodipodi-0.dtd"
   xmlns="http://www.w3.org/2000/svg"
   xmlns:svg="http://www.w3.org/2000/svg">
  <sodipodi:namedview
     id="namedview508"
     pagecolor="#ffffff"
     bordercolor="#000000"
     borderopacity="0.25"
     inkscape:showpageshadow="2"
     inkscape:pageopacity="0.0"
     inkscape:pagecheckerboard="0"
     inkscape:deskcolor="#d1d1d1"
     inkscape:document-units="mm"
     showgrid="false" />
  <defs
     id="defs503">
    <clipPath
       clipPathUnits="userSpaceOnUse"
       id="clipPath499">
      <rect
         style="fill:#ffffff"
         id="rect501"
         width="57.619007"
         height="36.969421"
         x="6.3280993"
         y="6.994215" />
    </clipPath>
  </defs>
  <g
     inkscape:label="Layer 1"
     inkscape:groupmode="layer"
     id="layer1"
     transform="translate(-63.811307,-117.93023)">
    <path
       fill-rule="evenodd"
       clip-rule="evenodd"
       d="m 28.166942,13.168595 v 7.7188 c 0,0.1718 -0.0922,0.3359 -0.2428,0.4257 l -2.0144,1.211 c -0.0774,0.0468 -0.1393,0.1133 -0.1813,0.1914 -0.0398,0.0703 -0.0615,0.1523 -0.0615,0.2343 v 1.7188 c 0,0.2773 0.2239,0.5 0.5,0.5 h 1.2085 c 1.4102,-1.2461 3.2627,-2 5.2915,-2 4.4183,0 8,3.582 8,8 0,0.5117 -0.0482,1.0156 -0.1404,1.5 h 1.6404 c 0.1473,0 0.2798,-0.0625 0.3713,-0.1641 0.08,-0.0898 0.1287,-0.207 0.1287,-0.3359 v -2 c 0,-0.2773 0.2239,-0.5 0.5,-0.5 h 2.6462 c -0.7128,0.7969 -1.1462,1.8477 -1.1462,3 0,2.4844 2.0147,4.5 4.5,4.5 2.4852,0 4.5,-2.0156 4.5,-4.5 0,-1.1523 -0.4335,-2.2031 -1.1463,-3 h 0.7939 c 0.1108,0 0.2154,-0.0352 0.3001,-0.1016 l 0.0512,-0.0468 0.0444,-0.0469 0.0223,-0.0352 0.0324,-0.0547 0.0205,-0.0468 2.1428,-6 c 0.0561,-0.1563 0.0291,-0.3164 -0.0525,-0.4414 -0.0879,-0.1328 -0.2391,-0.2266 -0.4183,-0.2266 h -6.2905 c -0.2761,0 -0.5,-0.2227 -0.5,-0.5 v -5.5 c 0,-0.2773 0.2239,-0.5 0.5,-0.5 h 0.5 c 0.2761,0 0.5,-0.2227 0.5,-0.5 v -1 c 0,-0.0898 -0.0237,-0.1758 -0.0652,-0.25 -0.0861,-0.1484 -0.2487,-0.2461 -0.4348,-0.2383 -0.8269,0.0352 -1.6249,0.1641 -2.2495,0.4258 -0.7503,0.3125 -1.2505,0.8125 -1.2505,1.5625 v 6 c 0,0.2773 -0.2239,0.5 -0.5,0.5 h -3.128 c -0.2208,0 -0.4155,-0.1445 -0.479,-0.3555 l -2.7861,-9.289 c -0.0635,-0.211 -0.2582,-0.3555 -0.479,-0.3555 h -10.1279 c -0.0796,0 -0.1548,0.0195 -0.2216,0.0508 -0.1649,0.082 -0.2784,0.25 -0.2784,0.4492 z m 2.5,2.5 v 3 c 0,0.5508 0.4477,1 1,1 h 5.656 c 0.6698,0 1.1502,-0.6445 0.9577,-1.2891 l -0.9,-3 c -0.1268,-0.4218 -0.5161,-0.7109 -0.9577,-0.7109 h -4.756 l -0.1605,0.0117 -0.1336,0.0313 -0.1368,0.0547 c -0.3366,0.1601 -0.5691,0.5039 -0.5691,0.9023 z m 18.5,19.6992 c 1.4912,0 2.7,-1.207 2.7,-2.6992 0,-1.4922 -1.2088,-2.6992 -2.7,-2.6992 -1.4911,0 -2.7,1.207 -2.7,2.6992 0,1.4922 1.2089,2.6992 2.7,2.6992 z m -10.5,-4.1992 c 0,3.3125 -2.6863,6 -6,6 -3.3137,0 -6,-2.6875 -6,-6 0,-3.3125 2.6863,-6 6,-6 3.3137,0 6,2.6875 6,6 z m -2,0 c 0,2.2109 -1.7909,4 -4,4 -2.2091,0 -4,-1.7891 -4,-4 0,-2.2109 1.7909,-4 4,-4 2.2091,0 4,1.7891 4,4 z m -2,0 c 0,1.1055 -0.8954,2 -2,2 -1.1046,0 -2,-0.8945 -2,-2 0,-1.1055 0.8954,-2 2,-2 1.1046,0 2,0.8945 2,2 z m -15.7243,-3.4727 c -0.1956,-1.6757 0.4579,-4.9843 4.6377,-4.8007 0.2022,1.8867 -0.4422,5.4882 -4.6377,4.8007 z m -0.5412,0.0508 c 0.1956,-1.6758 -0.4579,-4.9843 -4.6377,-4.8008 -0.2022,1.8868 0.4422,5.4883 4.6377,4.8008 z m 0,4.9375 c 0.1956,-1.6758 -0.4579,-4.9844 -4.6377,-4.8008 -0.2022,1.8868 0.4422,5.4883 4.6377,4.8008 z m 0.5951,0 c -0.1956,-1.6758 0.458,-4.9844 4.6378,-4.8008 0.2021,1.8868 -0.4423,5.4883 -4.6378,4.8008 z m -0.4518,-13.2226 c -1.2831,-1.043 -3.0795,-3.8594 0,-6.793 1.431,1.1875 3.4347,4.2031 0,6.793 z m -0.2075,3.4179 c 0.1956,-1.6757 -0.4579,-4.9843 -4.6377,-4.8007 -0.2022,1.8867 0.4422,5.4882 4.6377,4.8007 z m 0.5951,0 c -0.1956,-1.6757 0.458,-4.9843 4.6378,-4.8007 0.2021,1.8867 -0.4423,5.4882 -4.6378,4.8007 z m -0.1683,10.461 c -0.2526,0 -0.4575,0.2031 -0.4575,0.457 v 2.4141 c 0,0.25 0.2049,0.457 0.4575,0.457 0.2527,0 0.4576,-0.207 0.4576,-0.457 v -2.4141 c 0,-0.2539 -0.2049,-0.457 -0.4576,-0.457 z"
       fill="#0170b7"
       id="path46"
       clip-path="url(#clipPath499)"
       transform="matrix(0.26458333,0,0,0.26458333,60.195255,114.57833)" />
  </g>
</svg>
