<?xml version="1.0" encoding="UTF-8" standalone="no"?>
<svg
   width="28"
   height="30"
   viewBox="0 0 28 30"
   fill="none"
   version="1.1"
   id="svg62"
   sodipodi:docname="policies_icons.svg"
   xmlns:inkscape="http://www.inkscape.org/namespaces/inkscape"
   xmlns:sodipodi="http://sodipodi.sourceforge.net/DTD/sodipodi-0.dtd"
   xmlns="http://www.w3.org/2000/svg"
   xmlns:svg="http://www.w3.org/2000/svg">
  <defs
     id="defs66" />
  <sodipodi:namedview
     id="namedview64"
     pagecolor="#ffffff"
     bordercolor="#000000"
     borderopacity="0.25"
     inkscape:showpageshadow="2"
     inkscape:pageopacity="0.0"
     inkscape:pagecheckerboard="0"
     inkscape:deskcolor="#d1d1d1"
     showgrid="false" />
  <path
     fill-rule="evenodd"
     clip-rule="evenodd"
     d="m 28.000009,1.9999997 c 0,0.3594 -0.095,0.6992 -0.263,0.9922 -0.344,0.6016 -0.993,1.0078 -1.737,1.0078 -0.261,0 -0.511,-0.0508 -0.74,-0.1406 l -3.292,2.7851 c 0.021,0.1172 0.032,0.2344 0.032,0.3555 0,0.4805 -0.17,0.9219 -0.453,1.2656 -0.367,0.4492 -0.924,0.7344 -1.547,0.7344 -0.968,0 -1.775,-0.6875 -1.96,-1.6016 l -2.711,-0.9023 c -0.175,0.1562 -0.379,0.2812 -0.601,0.3672 -0.226,0.0859 -0.471,0.1367 -0.728,0.1367 -0.279,0 -0.544,-0.0586 -0.785,-0.1602 l -4.2150002,3.1602 -10e-4,0.0547 c -0.028,1.082 -0.912,1.9453 -1.999,1.9453 l -0.151,-0.0078 c -0.114,-0.0078 -0.226,-0.0234 -0.334,-0.0508 l -2.52,1.9141 0.005,0.1445 c 0,0.2383 -0.041,0.4648 -0.117,0.6758 -0.277,0.7734 -1.016,1.3242 -1.883,1.3242 C 0.89600885,16 8.8476563e-6,15.1055 8.8476563e-6,14 c 0,-0.2617 0.050000002344,-0.5078 0.1390000023437,-0.7344 0.103,-0.2617 0.26,-0.4961 0.456,-0.6875 C 0.95700885,12.2227 1.4530088,12 2.0000088,12 c 0.116,0 0.23,0.0117 0.34,0.0312 0.188,0.0313 0.367,0.086 0.533,0.168 l 2.198,-1.6719 c -0.047,-0.1679 -0.071,-0.3437 -0.071,-0.5273003 0,-1.1055 0.896,-2 2,-2 0.375,0 0.726,0.1016 1.026,0.2812 l 3.9890002,-3.0312 c -0.01,-0.082 -0.015,-0.1641 -0.015,-0.25 0,-1.1055 0.896,-2 2,-2 0.967,0 1.773,0.6875 1.959,1.5977 l 2.716,0.9023 c 0.352,-0.3125 0.817,-0.5 1.325,-0.5 0.237,0 0.464,0.043 0.675,0.1172 l 3.345,-2.832 c -0.013,-0.0938 -0.02,-0.1875 -0.02,-0.2852 0,-1.10550001 0.896,-2.00000001402588 2,-2.00000001402588 1.104,0 2,0.89450000402588 2,2.00000001402588 z M 24.000009,12 c 0,-0.5508 0.448,-1 1,-1 h 2 c 0.552,0 1,0.4492 1,1 v 17 c 0,0.5508 -0.448,1 -1,1 h -2 c -0.552,0 -1,-0.4492 -1,-1 z m -11,2 c -0.552,0 -1,0.4492 -1,1 v 14 c 0,0.2812 0.117,0.5391 0.306,0.7227 0.068,0.0664 0.146,0.1211 0.23,0.164 0.086,0.043 0.178,0.0781 0.276,0.0938 0.061,0.0117 0.124,0.0195 0.188,0.0195 h 2 c 0.338,0 0.637,-0.168 0.818,-0.4258 0.115,-0.1601 0.182,-0.3594 0.182,-0.5742 V 15 c 0,-0.5508 -0.448,-1 -1,-1 z m 5,3 c 0,-0.5508 0.448,-1 1,-1 h 2 c 0.552,0 1,0.4492 1,1 v 12 c 0,0.5508 -0.448,1 -1,1 h -2 c -0.552,0 -1,-0.4492 -1,-1 z M 6.2190088,18.375 c -0.137,0.1719 -0.219,0.3906 -0.219,0.625 v 10 c 0,0.5508 0.448,1 1,1 h 2 c 0.552,0 1.0000002,-0.4492 1.0000002,-1 V 19 c 0,-0.5508 -0.4480002,-1 -1.0000002,-1 h -2 c -0.316,0 -0.598,0.1484 -0.781,0.375 z M 1.0000088,20 C 0.66700885,20 0.37200885,20.1641 0.19000885,20.4141 0.07000885,20.5781 8.8476563e-6,20.7812 8.8476563e-6,21 v 8 c 0,0.5508 0.4480000023437,1 0.9999999523437,1 h 2 c 0.552,0 1,-0.4492 1,-1 v -8 c 0,-0.5508 -0.448,-1 -1,-1 z"
     fill="#0170b7"
     id="path14" />
</svg>
