<svg width="50" height="50" viewBox="0 0 50 50" fill="none" xmlns="http://www.w3.org/2000/svg">
<path d="M16.5249 13.1182C16.2544 13.1182 16.0352 13.3284 16.0352 13.5878V15.4662C16.0352 15.7256 16.2544 15.9358 16.5249 15.9358H33.476C33.7465 15.9358 33.9657 15.7256 33.9657 15.4662V13.5878C33.9657 13.3284 33.7465 13.1182 33.476 13.1182H16.5249Z" fill="#005C96"/>
<path d="M23.4795 18.249C23.1887 18.249 22.9531 18.4593 22.9531 18.7186V20.5971C22.9531 20.8564 23.1887 21.0667 23.4795 21.0667H33.4411C33.7318 21.0667 33.9675 20.8564 33.9675 20.5971V18.7186C33.9675 18.4593 33.7318 18.249 33.4411 18.249H23.4795Z" fill="#005C96"/>
<path fill-rule="evenodd" clip-rule="evenodd" d="M20.354 20.7209C20.8209 21.5475 20.7408 21.5824 20.7408 21.5824C20.3609 21.9245 20.1117 22.1951 19.9585 22.3758C20.0115 22.6325 20.0398 22.8977 20.0398 23.17C20.0398 23.4706 20.0024 23.7618 19.9384 24.0435C20.0875 24.2274 20.3318 24.5046 20.7071 24.857C20.7071 24.857 20.786 24.8927 20.3026 25.7095C19.8177 26.5259 19.7491 26.4725 19.7491 26.4725C19.2407 26.2922 18.8732 26.2031 18.6452 26.1583C18.2683 26.4749 17.8301 26.7205 17.3513 26.877C17.2716 27.0967 17.1554 27.4695 17.0437 28.0108C17.0437 28.0108 17.0531 28.0982 16.1152 28.0982C15.1761 28.0982 15.1863 28.0108 15.1863 28.0108C15.0709 27.4494 14.9506 27.0733 14.8709 26.8564C14.3876 26.6901 13.9482 26.4326 13.572 26.1029C13.3433 26.1427 12.9733 26.224 12.4596 26.3936C12.4596 26.3936 12.3902 26.445 11.9237 25.6187C11.4568 24.7925 11.5364 24.7576 11.5364 24.7576C11.9159 24.4159 12.1656 24.1453 12.3187 23.9642C12.2658 23.7075 12.2374 23.4423 12.2374 23.17C12.2374 22.8694 12.2748 22.5778 12.3393 22.297C12.1902 22.1126 11.9454 21.8358 11.5705 21.4835C11.5705 21.4835 11.4917 21.4473 11.9758 20.6314C12.4592 19.8146 12.5282 19.8684 12.5282 19.8684C13.037 20.0482 13.4045 20.1373 13.632 20.1821C14.0094 19.8655 14.4476 19.6199 14.9264 19.4635C15.0056 19.2433 15.1223 18.8709 15.234 18.3292C15.234 18.3292 15.2237 18.2422 16.1633 18.2422C17.1012 18.2422 17.0917 18.3292 17.0917 18.3292C17.2075 18.8902 17.3283 19.2672 17.4075 19.4836C17.8905 19.6499 18.3295 19.9074 18.7056 20.2367C18.9343 20.1969 19.3043 20.116 19.8177 19.9464C19.8177 19.9464 19.8875 19.8942 20.354 20.7209ZM14.2608 23.1693C14.2608 24.206 15.1013 25.0466 16.138 25.0466C17.1748 25.0466 18.0153 24.206 18.0153 23.1693C18.0153 22.1326 17.1748 21.2921 16.138 21.2921C15.1013 21.2921 14.2608 22.1326 14.2608 23.1693Z" fill="#005C96"/>
<path fill-rule="evenodd" clip-rule="evenodd" d="M37.344 26.8487C37.344 26.8487 37.4147 26.7779 36.5707 26.0929C35.7271 25.4078 35.6746 25.4926 35.6746 25.4926C35.1988 25.8885 34.8385 26.1298 34.6115 26.2681C34.0726 26.0749 33.497 25.9846 32.9127 26.0099C32.7376 25.8125 32.4509 25.4615 32.0923 24.9124C32.0923 24.9124 32.0659 24.8156 31.0666 25.2088C30.0655 25.6027 30.113 25.6912 30.113 25.6912C30.221 26.3151 30.2529 26.7608 30.2608 27.0286C29.8162 27.396 29.4523 27.8413 29.1829 28.3369C28.9218 28.3846 28.4928 28.4437 27.8753 28.4654C27.8753 28.4654 27.7793 28.437 27.6067 29.5098C27.4329 30.5822 27.5321 30.5876 27.5321 30.5876C27.7662 30.681 27.9691 30.7696 28.1431 30.8509C28.193 30.6678 28.2463 30.4499 28.2989 30.1955C28.3011 30.184 28.3036 30.1724 28.3064 30.1609C28.3266 30.0773 28.3607 30.0038 28.4012 29.9418C28.4792 29.8222 28.5762 29.752 28.6405 29.7138C28.7614 29.6419 28.8889 29.6113 28.9795 29.5942C29.1774 29.5567 29.4968 29.5322 30.0439 29.5322C30.5901 29.5322 30.9093 29.5567 31.1072 29.5942C31.1158 29.5958 31.1248 29.5976 31.134 29.5995C31.3544 29.0986 31.765 28.6811 32.3144 28.4649C33.419 28.0303 34.6669 28.5735 35.1015 29.6781C35.3859 30.4008 35.2517 31.1849 34.8155 31.7623C34.8341 31.7825 34.8508 31.8018 34.8657 31.8195C34.9952 31.9739 35.1741 32.2416 35.4455 32.7224C35.5473 32.9027 35.6302 33.0564 35.6975 33.1883C36.7712 32.164 37.1784 30.5538 36.6016 29.0878C36.3918 28.5547 36.0738 28.0962 35.6826 27.7279C36.076 28.097 36.3958 28.557 36.6064 29.0923C37.1835 30.559 36.7755 32.1701 35.7006 33.1943C35.8112 33.4113 35.8792 33.5685 35.9197 33.687C35.9388 33.7429 35.9604 33.8136 35.973 33.8934C36.4082 33.5293 36.7649 33.0902 37.0296 32.6026C37.2912 32.5547 37.7202 32.4956 38.3374 32.4745C38.3374 32.4745 38.4329 32.5027 38.6073 31.4295C38.7799 30.3567 38.6809 30.3517 38.6809 30.3517C38.1333 30.1336 37.7568 29.9407 37.5208 29.8072C37.471 29.4802 37.3887 29.1543 37.2627 28.834C37.1486 28.544 37.0072 28.2732 36.8431 28.0219C36.9306 27.7652 37.0827 27.3724 37.344 26.8487Z" fill="#005C96"/>
<path fill-rule="evenodd" clip-rule="evenodd" d="M34.8555 33.0611C35.3901 34.0076 35.2984 34.0476 35.2984 34.0476C34.8635 34.4392 34.5781 34.7491 34.4027 34.9559C34.4634 35.2498 34.4958 35.5535 34.4958 35.8653C34.4958 36.2094 34.453 36.5428 34.3797 36.8653C34.5504 37.076 34.8301 37.3934 35.2599 37.7968C35.2599 37.7968 35.3501 37.8377 34.7967 38.7729C34.2415 39.7076 34.1629 39.6464 34.1629 39.6464C33.5809 39.44 33.16 39.338 32.8991 39.2868C32.4675 39.6493 31.9658 39.9304 31.4176 40.1096C31.3264 40.3611 31.1933 40.788 31.0654 41.4077C31.0654 41.4077 31.0762 41.5079 30.0023 41.5079C28.927 41.5079 28.9388 41.4077 28.9388 41.4077C28.8067 40.765 28.6689 40.3343 28.5777 40.0861C28.0243 39.8956 27.5212 39.6008 27.0905 39.2233C26.8286 39.2689 26.405 39.362 25.8168 39.5562C25.8168 39.5562 25.7373 39.6149 25.2032 38.6689C24.6686 37.7229 24.7598 37.683 24.7598 37.683C25.1943 37.2918 25.4802 36.9819 25.6555 36.7746C25.5949 36.4807 25.5624 36.177 25.5624 35.8653C25.5624 35.5211 25.6052 35.1873 25.679 34.8657C25.5084 34.6546 25.2281 34.3377 24.7989 33.9342C24.7989 33.9342 24.7086 33.8929 25.2629 32.9586C25.8163 32.0234 25.8953 32.085 25.8953 32.085C26.4779 32.291 26.8987 32.393 27.1592 32.4443C27.5913 32.0817 28.0929 31.8006 28.6412 31.6214C28.7319 31.3694 28.8654 30.943 28.9933 30.3228C28.9933 30.3228 28.9816 30.2231 30.0573 30.2231C31.1312 30.2231 31.1204 30.3228 31.1204 30.3228C31.253 30.9651 31.3912 31.3967 31.482 31.6445C32.0349 31.8349 32.5375 32.1297 32.9682 32.5068C33.2301 32.4612 33.6537 32.3686 34.2415 32.1744C34.2415 32.1744 34.3214 32.1147 34.8555 33.0611ZM28.6053 39.3478C29.0445 39.5276 29.5252 39.6267 30.0291 39.6267C32.1064 39.6267 33.7906 37.9425 33.7906 35.8653C33.7906 34.3025 32.8373 32.9621 31.4805 32.3941C32.8336 32.9638 33.7835 34.3021 33.7835 35.8624C33.7835 37.9398 32.0995 39.6238 30.0221 39.6238C29.5209 39.6238 29.0426 39.5258 28.6053 39.3478ZM27.8727 35.8624C27.8727 37.0494 28.8351 38.0118 30.0221 38.0118C31.2091 38.0118 32.1715 37.0494 32.1715 35.8624C32.1715 34.6754 31.2091 33.713 30.0221 33.713C28.8351 33.713 27.8727 34.6754 27.8727 35.8624Z" fill="#005C96"/>
<path fill-rule="evenodd" clip-rule="evenodd" d="M24.9805 27.595C25.3133 28.1843 25.2562 28.2091 25.2562 28.2091C24.9855 28.453 24.8078 28.6459 24.6986 28.7747C24.7364 28.9576 24.7566 29.1467 24.7566 29.3408C24.7566 29.5551 24.7299 29.7626 24.6843 29.9634C24.7905 30.0946 24.9647 30.2922 25.2322 30.5433C25.2322 30.5433 25.2884 30.5688 24.9439 31.151C24.5982 31.7329 24.5493 31.6949 24.5493 31.6949C24.1869 31.5664 23.9249 31.5029 23.7625 31.471C23.4937 31.6966 23.1814 31.8717 22.8401 31.9832C22.7833 32.1398 22.7005 32.4056 22.6208 32.7914C22.6208 32.7914 22.6276 32.8538 21.959 32.8538C21.2895 32.8538 21.2968 32.7914 21.2968 32.7914C21.2146 32.3913 21.1288 32.1231 21.072 31.9686C20.7275 31.85 20.4143 31.6665 20.1461 31.4314C19.9831 31.4598 19.7194 31.5178 19.3532 31.6387C19.3532 31.6387 19.3037 31.6753 18.9712 31.0863C18.6383 30.4974 18.6951 30.4725 18.6951 30.4725C18.9656 30.2289 19.1436 30.036 19.2528 29.9069C19.215 29.724 19.1948 29.5349 19.1948 29.3408C19.1948 29.1265 19.2214 28.9187 19.2674 28.7185C19.1611 28.587 18.9867 28.3897 18.7194 28.1386C18.7194 28.1386 18.6632 28.1128 19.0083 27.5312C19.3529 26.949 19.402 26.9873 19.402 26.9873C19.7647 27.1155 20.0267 27.179 20.1889 27.2109C20.4579 26.9853 20.7702 26.8102 21.1116 26.6987C21.168 26.5418 21.2512 26.2763 21.3308 25.8902C21.3308 25.8902 21.3235 25.8281 21.9932 25.8281C22.6618 25.8281 22.6551 25.8902 22.6551 25.8902C22.7376 26.29 22.8237 26.5588 22.8802 26.713C23.2244 26.8316 23.5374 27.0151 23.8055 27.2499C23.9685 27.2215 24.2323 27.1638 24.5982 27.0429C24.5982 27.0429 24.648 27.0057 24.9805 27.595ZM22.2474 27.0146C22.1596 27.0046 22.0702 26.9995 21.9797 26.9995C20.6864 26.9995 19.6379 28.0479 19.6379 29.3413C19.6379 30.5417 20.5412 31.5312 21.7051 31.6671C20.5393 31.533 19.6339 30.5426 19.6339 29.3408C19.6339 28.0475 20.6824 26.999 21.9757 26.999C22.0676 26.999 22.1583 27.0043 22.2474 27.0146ZM20.6416 29.3413C20.6416 30.0803 21.2407 30.6794 21.9797 30.6794C22.7187 30.6794 23.3179 30.0803 23.3179 29.3413C23.3179 28.6023 22.7187 28.0031 21.9797 28.0031C21.2407 28.0031 20.6416 28.6023 20.6416 29.3413Z" fill="#005C96"/>
<path d="M13.2172 31.5687C13.2172 31.9824 13.1304 32.2988 12.9569 32.518C12.7833 32.7372 12.5293 32.8467 12.1947 32.8467C11.8643 32.8467 11.6116 32.7392 11.4366 32.5242C11.2617 32.3091 11.1722 32.0009 11.168 31.5995V31.0489C11.168 30.6311 11.2555 30.314 11.4304 30.0976C11.6067 29.8811 11.8601 29.7729 12.1905 29.7729C12.5209 29.7729 12.7736 29.8805 12.9486 30.0955C13.1235 30.3092 13.213 30.6167 13.2172 31.0181V31.5687ZM12.6154 30.9647C12.6154 30.7167 12.5806 30.5366 12.5112 30.4243C12.4432 30.3106 12.3363 30.2537 12.1905 30.2537C12.0489 30.2537 11.9441 30.3078 11.8761 30.4161C11.8094 30.5229 11.774 30.6907 11.7698 30.9194V31.6468C11.7698 31.8906 11.8032 32.0721 11.8698 32.1913C11.9378 32.3091 12.0461 32.368 12.1947 32.368C12.3418 32.368 12.4481 32.3112 12.5133 32.1975C12.5786 32.0838 12.6126 31.9098 12.6154 31.6756V30.9647Z" fill="#005C96"/>
<path d="M15.2769 32.845H14.6931V30.6921L13.9961 30.8989V30.4448L15.2143 30.0273H15.2769V32.845Z" fill="#005C96"/>
<path d="M13.2172 35.9232C13.2172 36.3369 13.1304 36.6533 12.9569 36.8725C12.7833 37.0916 12.5293 37.2012 12.1947 37.2012C11.8643 37.2012 11.6116 37.0937 11.4366 36.8786C11.2617 36.6636 11.1722 36.3554 11.168 35.954V35.4034C11.168 34.9856 11.2555 34.6685 11.4304 34.4521C11.6067 34.2356 11.8601 34.1274 12.1905 34.1274C12.5209 34.1274 12.7736 34.235 12.9486 34.45C13.1235 34.6637 13.213 34.9712 13.2172 35.3726V35.9232ZM12.6154 35.3191C12.6154 35.0712 12.5806 34.8911 12.5112 34.7788C12.4432 34.6651 12.3363 34.6082 12.1905 34.6082C12.0489 34.6082 11.9441 34.6623 11.8761 34.7705C11.8094 34.8774 11.774 35.0452 11.7698 35.2739V36.0013C11.7698 36.2451 11.8032 36.4266 11.8698 36.5458C11.9378 36.6636 12.0461 36.7225 12.1947 36.7225C12.3418 36.7225 12.4481 36.6656 12.5133 36.552C12.5786 36.4383 12.6126 36.2643 12.6154 36.0301V35.3191Z" fill="#005C96"/>
<path d="M13.2172 40.0179C13.2172 40.4316 13.1304 40.748 12.9569 40.9672C12.7833 41.1864 12.5293 41.296 12.1947 41.296C11.8643 41.296 11.6116 41.1884 11.4366 40.9734C11.2617 40.7583 11.1722 40.4501 11.168 40.0488V39.4981C11.168 39.0803 11.2555 38.7632 11.4304 38.5468C11.6067 38.3304 11.8601 38.2222 12.1905 38.2222C12.5209 38.2222 12.7736 38.3297 12.9486 38.5447C13.1235 38.7584 13.213 39.0659 13.2172 39.4673V40.0179ZM12.6154 39.4139C12.6154 39.1659 12.5806 38.9858 12.5112 38.8735C12.4432 38.7598 12.3363 38.703 12.1905 38.703C12.0489 38.703 11.9441 38.7571 11.8761 38.8653C11.8094 38.9721 11.774 39.1399 11.7698 39.3687V40.096C11.7698 40.3398 11.8032 40.5213 11.8698 40.6405C11.9378 40.7583 12.0461 40.8172 12.1947 40.8172C12.3418 40.8172 12.4481 40.7604 12.5133 40.6467C12.5786 40.533 12.6126 40.359 12.6154 40.1248V39.4139Z" fill="#005C96"/>
<path d="M21.4125 35.9232C21.4125 36.3369 21.3257 36.6533 21.1522 36.8725C20.9787 37.0916 20.7246 37.2012 20.39 37.2012C20.0596 37.2012 19.8069 37.0937 19.632 36.8786C19.457 36.6636 19.3675 36.3554 19.3633 35.954V35.4034C19.3633 34.9856 19.4508 34.6685 19.6257 34.4521C19.802 34.2356 20.0554 34.1274 20.3858 34.1274C20.7163 34.1274 20.9689 34.235 21.1439 34.45C21.3188 34.6637 21.4083 34.9712 21.4125 35.3726V35.9232ZM20.8107 35.3191C20.8107 35.0712 20.776 34.8911 20.7065 34.7788C20.6385 34.6651 20.5316 34.6082 20.3858 34.6082C20.2442 34.6082 20.1394 34.6623 20.0714 34.7705C20.0047 34.8774 19.9693 35.0452 19.9652 35.2739V36.0013C19.9652 36.2451 19.9985 36.4266 20.0651 36.5458C20.1332 36.6636 20.2414 36.7225 20.39 36.7225C20.5372 36.7225 20.6434 36.6656 20.7086 36.552C20.7739 36.4383 20.8079 36.2643 20.8107 36.0301V35.3191Z" fill="#005C96"/>
<path d="M18.5922 40.0179C18.5922 40.4316 18.5054 40.748 18.3319 40.9672C18.1583 41.1864 17.9043 41.296 17.5697 41.296C17.2393 41.296 16.9866 41.1884 16.8116 40.9734C16.6367 40.7583 16.5472 40.4501 16.543 40.0488V39.4981C16.543 39.0803 16.6305 38.7632 16.8054 38.5468C16.9817 38.3304 17.2351 38.2222 17.5655 38.2222C17.8959 38.2222 18.1486 38.3297 18.3236 38.5447C18.4985 38.7584 18.588 39.0659 18.5922 39.4673V40.0179ZM17.9904 39.4139C17.9904 39.1659 17.9556 38.9858 17.8862 38.8735C17.8182 38.7598 17.7113 38.703 17.5655 38.703C17.4239 38.703 17.3191 38.7571 17.2511 38.8653C17.1844 38.9721 17.149 39.1399 17.1448 39.3687V40.096C17.1448 40.3398 17.1782 40.5213 17.2448 40.6405C17.3128 40.7583 17.4211 40.8172 17.5697 40.8172C17.7168 40.8172 17.8231 40.7604 17.8883 40.6467C17.9536 40.533 17.9876 40.359 17.9904 40.1248V39.4139Z" fill="#005C96"/>
<path d="M15.2769 36.9451H14.6931V34.7922L13.9961 34.999V34.5449L15.2143 34.1274H15.2769V36.9451Z" fill="#005C96"/>
<path d="M15.2769 41.296H14.6931V38.9474L13.9961 39.173V38.6775L15.2143 38.2222H15.2769V41.296Z" fill="#005C96"/>
<path d="M18.0855 36.9451H17.5017V34.7922L16.8047 34.999V34.5449L18.0228 34.1274H18.0855V36.9451Z" fill="#005C96"/>
<path d="M20.898 41.296H20.3142V38.9474L19.6172 39.173V38.6775L20.8353 38.2222H20.898V41.296Z" fill="#005C96"/>
<path d="M23.7183 41.296H23.1345V38.9474L22.4375 39.173V38.6775L23.6557 38.2222H23.7183V41.296Z" fill="#005C96"/>
<path d="M35.7584 11.0693H14.2418C13.9589 11.0693 13.7295 11.2987 13.7295 11.5816V18.8819H11.168V11.0693C11.168 9.65463 12.3148 8.50781 13.7295 8.50781H36.2707C37.6854 8.50781 38.8322 9.65463 38.8322 11.0693V24.0049H36.2707V11.5816C36.2707 11.2987 36.0414 11.0693 35.7584 11.0693Z" fill="#005C96"/>
</svg>
