<svg width="63" height="50" viewBox="0 0 63 50" fill="none" xmlns="http://www.w3.org/2000/svg">
<path d="M50.824 17.6275C51.9752 17.6275 52.9085 16.6942 52.9085 15.543C52.9085 14.3918 51.9752 13.4585 50.824 13.4585C49.6728 13.4585 48.7395 14.3918 48.7395 15.543C48.7395 16.6942 49.6728 17.6275 50.824 17.6275Z" fill="#005C96"/>
<path d="M33.8098 24.1627C34.9611 24.1627 35.8944 23.2294 35.8944 22.0782C35.8944 20.9269 34.9611 19.9937 33.8098 19.9937C32.6586 19.9937 31.7253 20.9269 31.7253 22.0782C31.7253 23.2294 32.6586 24.1627 33.8098 24.1627Z" fill="#005C96"/>
<path d="M43.6128 30.6978C44.7641 30.6978 45.6973 29.7646 45.6973 28.6133C45.6973 27.4621 44.7641 26.5288 43.6128 26.5288C42.4616 26.5288 41.5283 27.4621 41.5283 28.6133C41.5283 29.7646 42.4616 30.6978 43.6128 30.6978Z" fill="#005C96"/>
<mask id="path-4-inside-1_569_13733" fill="white">
<path d="M51.1055 15.374H8.28857V16.374H51.1055V15.374Z"/>
</mask>
<path d="M51.1055 15.374H8.28857V16.374H51.1055V15.374Z" fill="#1171B5"/>
<path d="M8.28857 15.374V14.374H7.28857V15.374H8.28857ZM51.1055 15.374H52.1055V14.374H51.1055V15.374ZM51.1055 16.374V17.374H52.1055V16.374H51.1055ZM8.28857 16.374H7.28857V17.374H8.28857V16.374ZM8.28857 16.374H51.1055V14.374H8.28857V16.374ZM50.1055 15.374V16.374H52.1055V15.374H50.1055ZM51.1055 15.374H8.28857V17.374H51.1055V15.374ZM9.28857 16.374V15.374H7.28857V16.374H9.28857Z" fill="#005C96" mask="url(#path-4-inside-1_569_13733)"/>
<mask id="path-6-inside-2_569_13733" fill="white">
<path d="M34.0916 22.1345H8.28882V23.1345H34.0916V22.1345Z"/>
</mask>
<path d="M34.0916 22.1345H8.28882V23.1345H34.0916V22.1345Z" fill="#1171B5"/>
<path d="M8.28882 22.1345V21.1345H7.28882V22.1345H8.28882ZM34.0916 22.1345H35.0916V21.1345H34.0916V22.1345ZM34.0916 23.1345V24.1345H35.0916V23.1345H34.0916ZM8.28882 23.1345H7.28882V24.1345H8.28882V23.1345ZM8.28882 23.1345H34.0916V21.1345H8.28882V23.1345ZM33.0916 22.1345V23.1345H35.0916V22.1345H33.0916ZM34.0916 22.1345H8.28882V24.1345H34.0916V22.1345ZM9.28882 23.1345V22.1345H7.28882V23.1345H9.28882Z" fill="#005C96" mask="url(#path-6-inside-2_569_13733)"/>
<mask id="path-8-inside-3_569_13733" fill="white">
<path d="M44.4576 28.6699H8.28857V29.6699H44.4576V28.6699Z"/>
</mask>
<path d="M44.4576 28.6699H8.28857V29.6699H44.4576V28.6699Z" fill="#1171B5"/>
<path d="M8.28857 28.6699V27.6699H7.28857V28.6699H8.28857ZM44.4576 28.6699H45.4576V27.6699H44.4576V28.6699ZM44.4576 29.6699V30.6699H45.4576V29.6699H44.4576ZM8.28857 29.6699H7.28857V30.6699H8.28857V29.6699ZM8.28857 29.6699H44.4576V27.6699H8.28857V29.6699ZM43.4576 28.6699V29.6699H45.4576V28.6699H43.4576ZM44.4576 28.6699H8.28857V30.6699H44.4576V28.6699ZM9.28857 29.6699V28.6699H7.28857V29.6699H9.28857Z" fill="#005C96" mask="url(#path-8-inside-3_569_13733)"/>
<path d="M19.0494 37.5711C20.2006 37.5711 21.1339 36.6378 21.1339 35.4866C21.1339 34.3354 20.2006 33.4021 19.0494 33.4021C17.8981 33.4021 16.9648 34.3354 16.9648 35.4866C16.9648 36.6378 17.8981 37.5711 19.0494 37.5711Z" fill="#005C96"/>
<mask id="path-11-inside-4_569_13733" fill="white">
<path d="M19.8942 35.4302H8.28857V36.4302H19.8942V35.4302Z"/>
</mask>
<path d="M19.8942 35.4302H8.28857V36.4302H19.8942V35.4302Z" fill="#1171B5"/>
<path d="M8.28857 35.4302V34.4302H7.28857V35.4302H8.28857ZM19.8942 35.4302H20.8942V34.4302H19.8942V35.4302ZM19.8942 36.4302V37.4302H20.8942V36.4302H19.8942ZM8.28857 36.4302H7.28857V37.4302H8.28857V36.4302ZM8.28857 36.4302H19.8942V34.4302H8.28857V36.4302ZM18.8942 35.4302V36.4302H20.8942V35.4302H18.8942ZM19.8942 35.4302H8.28857V37.4302H19.8942V35.4302ZM9.28857 36.4302V35.4302H7.28857V36.4302H9.28857Z" fill="#005C96" mask="url(#path-11-inside-4_569_13733)"/>
</svg>
